<?xml version="1.0" encoding="UTF-8"?>
<svg id="Layer_2" xmlns="http://www.w3.org/2000/svg" version="1.1" viewBox="0 0 2398 286">
  <!-- Generator: Adobe Illustrator 29.7.1, SVG Export Plug-In . SVG Version: 2.1.1 Build 8)  -->
  <g id="Layer_1-2">
    <g>
      <path d="M0,226.7L73.4,4.4l66-1,73.4,223.3h-54l-16.4-49.9-78.4.2-15.1,49.7H0ZM132.9,139.9l-28.5-92.7-28.5,92.7h57Z"/>
      <path d="M1565.3,154.9h-116.9c-.9,17.5,9.5,35.6,27,40.4,17.7,4.9,43.2-.2,46-21.4h44c-3.4,34.1-33.1,53.4-65.5,55.8-64.2,4.7-102.7-30.4-98.5-95.2,3.7-57.7,61.3-88.2,114.2-70.9,40.3,13.2,52.8,52.2,49.8,91.4h0ZM1520.4,127c-1.1-49.7-67.3-46.3-72,0h72Z"/>
      <path d="M753.7,154.9h-117c-.5,21,12.7,39.9,34.5,41.8,16.7,1.5,35.9-4.1,38.5-22.9h44c-6,62.9-98.1,70.3-138,36.4-34.6-29.5-34.7-94.3-4-126.6,33.9-35.7,106.3-33.4,131.5,11.5,4.2,7.4,10.5,25.2,10.5,33.4v26.4h0ZM708.7,127c-.4-19.8-11.6-35.1-32.4-35.9-22.9-.9-35.8,14.9-39.5,35.9h72Z"/>
      <path d="M936.6,226.7h-46v-105.2c0-2.3-3.1-11.1-4.5-13.5-9.2-16-37.7-13.8-49-1-3.7,4.2-8.5,15.1-8.5,20.4v99.2h-46V63.2h46v22.9c1.9-1.3,2.8-4,4.5-6,27.4-31.7,86-29.5,99.9,14,1,3.3,3.5,12.4,3.5,15.4v117.1h0Z"/>
      <path d="M1136.5,63.2v101.2c0,3.3,2.3,12.9,3.8,16.1,9.6,20.8,44.6,16.5,54-3.3,1-2.2,4.1-11,4.1-12.8V63.2h46v163.5h-46v-22.9c-10,14.6-24.4,24.4-42.5,25.9-44.9,3.8-63.4-20.2-65.5-62.2-1.7-34.2,1.4-69.8,0-104.2h46Z"/>
      <path d="M2372,63.2h26v163c0,33.2-34.9,57.1-65.4,59.3-38.6,2.9-80.9-6.8-87.5-50.9h28c3.8,32.1,54.6,33.9,76.6,22.1,10.1-5.4,21.3-20.9,21.3-32.6v-31.4c-2.6,2-4.8,6.3-7,8.5-33.5,33-89.5,23.6-112.1-16.8-15.1-26.9-13-66.2,4.4-91.7,25.9-38,85.3-46.5,113.8-7.2l2-1v-21.4h0ZM2356.7,184.4c29.2-29.1,19.1-97.4-29.3-102.2-74.2-7.3-76.3,112.1-11.9,116.5,14.4,1,30.9-4.1,41.2-14.3Z"/>
      <path d="M570.8,123h-44c-3.2-34.5-49.9-36.3-64.5-8-8.4,16.2-8.3,45.4.4,61.5,15.9,29.5,65.5,22.7,67.2-12.6h42c-1.7,55.1-56.9,74.9-104.6,62.9-82.7-20.8-76.7-151.4,8.4-166.3,45-7.9,93.7,11.6,95.2,62.5h0Z"/>
      <path d="M390.8,123h-44c-2.6-24.3-27.9-33.4-48.7-24.1-24.5,10.9-26.5,50.7-18.3,72.5,13.1,34.9,66.2,30.6,70-7.5h42c-2.7,54-56.4,74.9-104,63.3-87.5-21.4-76.4-160.7,15.5-167.9,44.7-3.5,84,15.4,87.5,63.8h0Z"/>
      <path d="M1699.3,157.9c1.3,17.6,8.8,35,25.6,42.7,26.5,12.2,73.7,7.4,81.9-25.7,13.5-54.6-56.8-48.3-89.7-61.1-64.7-25.1-41.4-107.9,24.8-113.3,43.7-3.6,82.5,15,87.4,61.8h-26c-3.9-33-31.6-41.7-61.3-38.8-25,2.5-41.8,21.3-35.2,46.8,6.6,25.4,50.2,26.2,71.5,31.3,29.9,7.2,54.1,20.2,56.8,54,5.3,64.8-68.6,87.4-119.8,66.6-26.2-10.6-42.1-36.5-43-64.3h27Z"/>
      <path d="M1027.6,27.3v35.9h34v32.9h-34v83.2c0,1.1,3.4,7.4,4.4,8.5,7.5,7.9,21.4,4.2,30.5,1.9v35.9c-26.6,7.5-64.7,7.1-76.7-22.7-1.2-3-4.2-12-4.2-14.7v-92.2h-21v-32.9h21V27.3h46Z"/>
      <path d="M2004.8,82.5c43.2,43.1,26,130.7-37.6,144.7-69.9,15.3-116.7-48.1-96.2-112.9,17.8-56.3,92.8-72.8,133.9-31.8h0ZM1943,82.4c-62.4,4.7-64.7,108.4-10.6,122.6,85.2,22.3,92.8-128.7,10.6-122.6Z"/>
      <path d="M2204.1,226.7h-27v-112.1c0-2.5-2.7-10.4-3.8-13.1-11.6-26.9-57.9-22.1-72,.3-2.5,4-7.2,15.3-7.2,19.8v105.1h-27V63.2h27v22.9c20.3-32.5,79.5-36.3,100.1-2.7,4.1,6.7,9.8,23.5,9.8,31.1v112.1Z"/>
      <path d="M1382.4,60.2v42.9c-17.4.1-39.6,2.8-48.4,20-1.6,3.1-4.6,12.2-4.6,15.3v88.2h-46V63.2h46v27.9l10.9-15.5c11.4-10.9,26.3-15.7,42-15.4h0Z"/>
    </g>
  </g>
</svg>