<?xml version="1.0" encoding="UTF-8"?>
<svg id="Layer_2" data-name="Layer 2" xmlns="http://www.w3.org/2000/svg" viewBox="0 0 752.67 338.86">
  <g id="Layer_1-2" data-name="Layer 1">
    <g>
      <path d="M519.71,175.34c4,0,8,.14,11.99-.05,3.02-.14,3.69.86,3.05,3.78-5.55,25.18-10.99,50.38-16.45,75.58-.56,2.6-1.05,5.22-1.6,7.83-.93,4.43-1.35,8.78,3.46,11.36,4.15,2.22,10.98.69,14.27-2.91,2.22-2.43,3.18-5.41,3.85-8.53,5.95-27.48,12-54.93,17.76-82.45.79-3.77,2.23-4.84,5.89-4.7,7.32.28,14.67.46,21.97.01,4.87-.3,4.94,1.71,4.13,5.39-4.55,20.62-8.96,41.28-13.49,61.9-2.5,11.35-4.12,22.93-8.73,33.75-12.1,28.38-38.91,32.84-58.46,26.49-18.72-6.08-26.55-22.18-22.02-43.26,5.66-26.34,11.44-52.66,16.94-79.03.83-3.99,2.19-5.72,6.45-5.22,3.61.42,7.32.09,10.98.09v-.03Z"/>
      <path d="M646.66,175.38c-10.99,0-21.99.24-32.96-.15-4.31-.15-5.62,1.4-6.42,5.3-4.29,21.02-8.83,41.99-13.3,62.97-3.92,18.38-7.8,36.77-11.87,55.11-.79,3.55-.07,4.55,3.66,4.41,7.64-.29,15.32-.28,22.97,0,3.81.15,5.2-1.13,5.74-4.88.85-5.92,2.39-11.73,3.62-17.59q2.09-9.99,12.92-10c14.2.58,27.32-2.95,37.31-14.45,9.63-11.1,14.04-24.53,15.73-38.74,3.22-26.94-10.42-41.96-37.4-41.98ZM652,221.38c-1.85,12.94-8.19,19.04-20.47,19.15-4.5,1.01-4.94-1.22-3.88-5.51,2.04-8.2,3.7-16.49,5.31-24.79.62-3.21,1.72-4.68,5.44-4.6,11.59.24,15.25,4.24,13.6,15.75Z"/>
      <path d="M532.59,122.19c2.5,0,5.01.12,7.5-.03,4.77-.29,8.88-1,8.28,6.6-.36,4.61,4.49,6.52,9,6.87,6.59.51,11.86-2.59,13.61-7.87,1.34-4.05.69-7.64-2.7-10.35-2.33-1.86-4.86-3.51-7.44-5-3.89-2.24-7.95-4.2-11.88-6.36-12.65-6.96-21.44-16.4-20.21-32.08,1.33-17.02,8.89-30.15,25.29-36.3,16.27-6.11,32.74-6.58,47.68,4.01,10.73,7.61,12.78,18.86,11.26,31.17-.27,2.17-1.49,2.68-3.41,2.67-8.33-.05-16.66-.08-24.99,0-2.21.02-2.81-.69-2.62-2.93.4-4.92-2.19-7.87-6.88-8.91-5.59-1.25-10.96,1.04-13.29,5.55-2.27,4.39-1.71,8.35,2.02,11.72,2.75,2.47,6,4.16,9.27,5.81,4.01,2.02,8.1,3.89,12.03,6.05,17.26,9.45,22.82,22.95,17.46,41.92-4.2,14.86-13.65,24.67-28.58,28.5-15.28,3.92-30.47,3.96-44.32-5.01-10.84-7.02-16.01-20.64-13.4-33.26.5-2.44,1.81-2.82,3.84-2.79,4.17.05,8.33.02,12.5.01Z"/>
      <path d="M747.74,39.74c-.12-2.98-.96-4.05-4.05-3.98-8.66.19-17.33.24-25.99-.02-3.36-.1-4.95,1.04-6.36,4.04-14.47,30.71-29.1,61.34-43.69,91.98-4.91,10.34-9.84,20.66-15.19,31.9,10.5,0,19.98-.07,29.45.04,2.43.03,3.51-1.04,4.39-3.14,2.17-5.23,4.69-10.3,6.85-15.53.97-2.32,2.26-3.29,4.85-3.22,6.49.18,13,.19,19.49.02,2.8-.07,3.9.85,3.84,3.67-.12,4.83.12,9.66-.04,14.49-.1,2.83.9,3.77,3.74,3.72,7.99-.16,16-.16,23.99,0,2.8.05,3.77-.69,3.64-3.65-1.72-40.1-3.37-80.21-4.92-120.32ZM717.59,114.72c-11.65.55-11.63.63-7.24-9.81,2.7-6.4,5.27-12.87,8.05-19.24.75-1.7.92-3.86,2.64-4.82,0,10.24-.07,20.34.04,30.44.03,2.64-.98,3.31-3.49,3.43Z"/>
      <path d="M506.03,159c-.99-19.6-1.73-39.22-2.56-58.84h-.02c-.8-19.95-1.68-39.89-2.31-59.85-.11-3.36-.86-4.67-4.47-4.57-8.65.25-17.31.23-25.96,0-3.17-.08-4.62,1.07-5.93,3.87-12.11,25.7-24.38,51.33-36.6,76.98-6.87,14.41-13.69,28.83-20.63,43.2-1.38,2.86-1.35,4.12,2.36,3.92,4.48-.24,9.11-.73,13.46.08,11.71,2.16,18.37-2.42,20.98-13.85,1.44-6.28,5.07-9.35,12.11-8.21,4.71.76,9.64.28,14.46.09,2.86-.11,3.83,1,3.79,3.75-.07,4.83.25,9.66.1,14.47-.09,2.85.86,3.72,3.69,3.66,7.66-.16,15.32-.26,22.97.07,3.86.16,4.75-1.05,4.56-4.77ZM474.19,112.45c-.03,1.4-.68,2.16-2.12,2.18-.5.01-1,.01-1.49.04q-11.16.59-6.86-9.62c2.77-6.59,5.44-13.22,8.19-19.81.67-1.6,1.48-3.13,2.23-4.69,1.32,10.84.28,21.36.05,31.9Z"/>
      <path d="M463.71,222.47c-4.33,0-8.66-.06-12.98.03-2.32.05-2.96-.97-2.46-3.07.35-1.45.77-2.9.97-4.38.62-4.4,1.1-8.85-4.08-11.06-4.85-2.07-11.36-.24-14.42,3.94-1.91,2.6-2.88,5.6-3.55,8.72-3.26,15.29-6.61,30.56-9.74,45.87-.86,4.21-1.73,8.83,3.36,11.35,4.52,2.24,11.39.6,14.61-3.26,3.02-3.62,3.95-8.1,4.51-12.51.47-3.7,2.06-4.53,5.53-4.42,7.98.26,15.98.05,23.97.12,1.39.01,3.6-.89,2.95,2.29-3.38,16.71-9.01,32.12-24.1,42.07-15.35,10.11-39.4,9.32-52.57-1.73-10.11-8.49-12.76-19.9-10.43-32.1,3.65-19.09,7.06-38.3,12.74-56.91,9-29.49,39.72-43.35,65.95-30.05,17.24,8.74,20.56,26.55,15.88,43.37-.54,1.94-2.15,1.75-3.66,1.75-4.16,0-8.32,0-12.49,0v.02Z"/>
      <path d="M57.77,276.17c-4.05-5.89-7.19-11.98-10.11-18.24-6.82-14.63-12.83-29.52-16-45.44-1.01-5.09-1.24-10.23-1.35-15.4-.06-3.07,1.31-5.71,3.25-7.63,23.43-23.3,48.34-44.71,77.16-61.31,23.28-13.41,47.61-23.94,73.91-29.71,2.87-.63,5.54-2.38,9.6-1.07-3.38,1.73-6.09,3.3-8.93,4.55-19.86,8.76-36.94,21.54-52.14,36.78-28.84,28.91-48.9,63.4-63.4,101.34-4.5,11.78-8.33,23.77-11.99,36.13Z"/>
      <path d="M182.07,115.71c-11.34,12.23-19.59,26.33-25.09,42.03-6.57,18.75-10.14,38.1-12.14,57.88-3.44,34.14-1.76,68.11,1.79,102.61-6.86-2.52-11.74-7.5-16.89-11.81-15.08-12.62-28.61-26.77-40.67-42.35-3.16-4.08-3.82-7.43-2.13-12.62,6.67-20.46,14.94-40.19,25.42-58.95,16.61-29.74,37.03-56.26,65.38-75.93.81-.56,1.54-1.23,2.3-1.85,1.09-.53,2.04-.79,2.01.98Z"/>
      <path d="M186.97,124.1c-1.56,6.7-3.65,13.15-4.68,19.88-3.58,23.24,1.03,45.39,8.83,67.08,6.68,18.58,16.09,35.78,27.3,51.99,1.91,2.76,1.75,4.2-.56,6.62-13.83,14.52-29.36,27.06-45.07,39.41-2.26,1.78-3.24,1.64-3.91-1.28-7.54-32.95-11.7-66.21-9.18-100.07,1.88-25.29,7.23-49.7,19.37-72.25,2.18-4.05,4.27-8.21,7.9-11.39Z"/>
      <path d="M2.08,118.02c5.58-10.85,11.78-19.81,18.49-28.4,9.37-12,19.76-22.88,33.5-30.11,5.63-2.96,11.6-4.04,17.77-4.39,52.95-3.05,104.69,2.52,154.43,21.98,4.14,1.62,8.38,3.17,13.31,6.59-41.2-9.83-81.3-9.58-121.48-3-40.11,6.57-78.35,19.14-116.02,37.34Z"/>
      <path d="M251.97,223.09c.41,2.68,2.59,3.12,4.67,3.65,6.76,1.72,12.78,4.97,18.64,8.66,2.08,1.31,2.85,2.86,2.93,5.26.39,11.28-1.93,22.16-4.85,32.93-1.03,3.79-8.79,5.02-11.59,1.75-2.41-2.83-4.94-5.41-8.2-7.15-1.88-1-1.82-2.58-1.86-4.24-.41-17.31-4.59-33.86-10.16-50.11-.81-2.37-.63-4.69.08-6.85,1.72-5.24.8-10.08-1.2-15.02-4.53-11.15-10.37-21.53-17.72-31.06.71-.73,1.46-.76,2.26-.15,7.44,4.13,15.11.97,22.68.66,5.83-.24,11.51-.97,15.81-5.69,1.2-1.31,2.96-2.46,2.52,1.02-.78,3-.11,5.99.09,8.99,3.42,7.92,6.82,15.85,10.26,23.76.31.7,1.15,1.44.11,2.05-.96.56-1.36-.62-2.02-1.01-3.96-.91-6.18-4.53-9.35-6.03,2.51,2.28,6.23,3.78,7.91,7.44,1.06.97,2.15,1.91,3.18,2.91,1.63,1.58.28,1.66-.93,1.78-4.75-.32-9.55-.15-14.17-1.65,3.64,1.18,7.68.63,11.09,2.71,14.38,1.59,21.13,12.97,28.87,22.84,5.12,6.53,9.44,13.68,14.28,20.43,1.57,2.18,1.09,3.31-.48,5.4-5.29,7.06-12.68,5.04-19.6,5.26-1.41.04-1.92-1.16-2.53-2.12-8.36-13.15-20.86-20.46-35.25-25.26-1.49-.5-3.76-.32-4.46-2.5-4.1-3.86-7.59-8.13-9.01-13.75.46,1.75.69,3.67,1.77,5.1,1.19,1.57,2.28,3.21,3.49,4.77,1.22,1.57,2.4,3.15,2.73,5.19Z"/>
      <path d="M208.02,86.06C123.89,93.98,58.41,137.16.48,196c-1.25-5.68.28-10.68,1.02-15.49,2.52-16.5,6.44-32.65,15.44-47.05,2.29-3.66,4.78-7.05,8.93-9.07,26.9-13.09,55.04-22.59,84.17-29.24,29.33-6.7,59.05-9.81,89.13-9.58,2.95.02,5.9.32,8.86.49Z"/>
      <path d="M626.15,163.65c-3.66,0-7.35-.3-10.98.07-4.39.45-4.75-1.28-3.93-5.01,6.31-28.91,12.45-57.85,18.66-86.78,2.33-10.89,4.81-21.75,6.96-32.67.53-2.71,1.57-3.55,4.23-3.5,8.15.14,16.31.2,24.46,0,3.32-.08,3.92.86,3.23,4.01-7.1,32.66-14.07,65.35-21.07,98.03-1.5,6.99-3.27,13.94-4.35,21-.62,4.09-2.39,5.24-6.24,4.93-3.64-.3-7.32-.06-10.98-.07Z"/>
      <path d="M52.48,43.55c8.86-5.65,18.19-10.21,27.77-14.22,19.12-8.01,38.66-14.29,59.7-14.77,11.34-.26,21.06,4.5,30.81,9.05,32.42,15.1,60.69,36.37,87.72,59.61C193.45,51.15,124.78,38.33,52.48,43.55Z"/>
      <path d="M316.28,237.91c3.94-.36,5.68,2.13,7.32,4.58,6.33,9.47,10.71,19.9,14.95,30.4,6.61,16.34,12.24,33.01,17.9,50.93-6.84-2.31-12.88-4.27-18.85-6.43-1.49-.54-1.71-2.38-2.33-3.71-5.14-11.21-11.04-21.98-17.57-32.45-3.04-4.87-6.68-8.51-12.11-10.5-6.63-2.43-6.66-9.41-9.5-14.44-.68-1.21.61-1.62,1.7-1.63,1.33-.02,2.69-.19,3.99.01,6.31.99,10.95-1.43,15.42-5.89,3-3,3.85-4.99.8-8.08-.66-.67-1.02-1.63-1.73-2.8Z"/>
      <path d="M285.05,277.64c.54,2.57-.83,2.87-2.39,3.38-30.05,9.88-57.69,24.71-84.32,41.54-3.73,2.36-4.98,2.04-6.06-2.3-2.9-11.58-3.05-11.53,7.03-18.46,6.3-4.34,12.54-8.77,18.85-13.09,4.42-3.02,8.12-6.54,11.15-11.13,6.63-10.05,21.45-10.58,29.41-1.46,4.91,5.63,12.32,5.23,16.66-.81,1.92-2.66,5.21-2.32,7.75-2.18,2.28.12,1.37,3.27,1.91,4.5Z"/>
      <path d="M200.35.04c6.31.4,11.54,2.08,15.92,7.55,17.46,21.81,36.19,42.54,55.68,62.58,1.77,1.82,4.4,3.56.53,6.14-1.8,1.2-2.84.84-4.31-.32-19.78-15.72-39.91-31.02-58.67-47.99-7.02-6.35-9.93-15.23-13.46-23.61-1.52-3.6,1.16-4.6,4.31-4.36Z"/>
      <path d="M224.98,160.76c-.75.05-1.5.1-2.26.15-1.01-3.27-4.08-4.45-6.43-6.36-6.32-5.13-5.9-15.01.8-17.53,3.19-1.2,6.53-.17,9.8-.07.32.11.71.06.95.21,5.79,3.51,12.24,3.56,18.71,3.74,1.63.04,3.14,1,4.6,1.81,3.18.73,4.6-2.21,6.79-3.43,6.77-3.79,14.01-6.8,20.16-11.65,2.42-4.12,5.16-8.01,8.22-11.68.98-1.17,2.17-2.2,3.84-1.41,1.37.65,1.93,1.75,1.09,3.24-.81,1.45-1.84,2.81-2.39,4.35-5.55,15.56-17.34,25.45-30.59,34.09-1.79,1.17-3.56,1.56-5.58,1.7-8.88.63-17.59,3.63-26.65,1.97-.29-.05-.7.56-1.06.86Z"/>
      <path d="M224.23,130.77c-.6.53-.63,2.29-2.02,1.16-4.68-3.82-6.9-12.8-4.86-19.32,1.85-5.9,6.66-9.65,12.86-10.02,9.32-.56,15.43,2.52,18.63,9.4,2.81,6.05,4.8,6.62,11.36,4.31,2.43-.86,5.24.39,6.37,2.65,1.23,2.46-1.33,2.66-2.84,2.49-3.77-.42-7.51-1.19-11.26-1.81-4.09.31-8.1-.4-12.15-.88-4.95-.59-9.14,2.2-13.66,3.52-.94.27-1.03,1.18-.76,2.05.77,2.5-.5,4.47-1.67,6.46Z"/>
      <path d="M355.31,337.76c-4.28-.42-10.8.97-17.17-1.01-2.73-.85-4.02-1.63-3.39-5.13,1.85-10.24,1.61-10.28,11.41-7.12,8.85,2.85,17.71,5.66,26.54,8.55,1.48.48,3.69.67,3.3,2.96-.39,2.27-2.51,1.72-4.09,1.73-4.82.05-9.64.02-16.6.02Z"/>
      <path d="M280.13,95.84c-3.15-1.48-5.98-3.14-7.79-6.46-3.18-5.86-3.19-7.86,1-11.17,5.69-4.49,12.54-5.16,16.16-1.33,1.87,1.98,1.71,4.94,2.58,7.41,1.29,3.69-2.22,3.78-4.03,5.07-1.59,1.13-3.78,1.73-2.91,4.43.89,1.22.95,2.48-.38,3.29-1.86,1.14-3.32.06-4.63-1.24Z"/>
      <path d="M200.98,338.86c-7.63-.11-13.76-.53-18.03-6.6-2.86-4.06-5.92-8-9.17-11.74-1.78-2.05-1.18-2.74.83-3.92,10.98-6.47,11.07-6.55,14.35,5.47.98,3.59,3.45,5.97,5.53,8.71,1.86,2.45,3.86,4.81,6.49,8.08Z"/>
      <path d="M246.63,131.3c2.82.95,5.11,1.72,7.4,2.5-1.4,2.87-3.33-.59-4.92.45,1.17,1.64,3.86,1.65,4.69,5.12-8.8-4.77-17.05-9.1-26.54-9.66h-.01c-1.75-3.3-.93-6.85,2.45-8.46.41-.19.81-.38,1.22-.55.09-.04.18-.08.28-.11.75-.33,1.51-.61,2.26-.85.1-.04.2-.07.29-.1,1.31-.42,2.62-.72,3.93-.9,2.89-.4,5.8-.21,8.7.74,1.21.39,2.41.92,3.61,1.58.16,3.22-1.43,7.62,4.81,6.63-.98,1.67-2.6.55-3.62,1.38.91,1.38,3.89-.15,3.81,2.64-2.61.23-5.11-1.57-8.36-.41Z"/>
      <path d="M287.11,92.78c1.42-.84,2.87-1.63,4.24-2.54,1.76-1.16,3.4-1.94,5.25-.06,1.83,1.86,4.97,2.46,4.15,6.43-.97,4.71-1.57,9.42-4.58,13.4-1.2,1.6-2.19,3.21-.45,5.29.65.78-.68,1.17-1.45,1.38-6.58-2.81-9.66-8.24-8.68-15.2.41-2.92.01-5.97,1.51-8.7Z"/>
      <path d="M287.11,92.78c-.11,2.48.08,5.02-.39,7.43-1.44,7.39,2.39,12.21,7.56,16.48-1.01.37-2.02.73-3.03,1.09-.55-3.07-1.67-3.97-3.97-1.15-3.02,3.7-6.12,7.34-9.18,11,1.21-2.13.32-4.84,1.88-6.87,5.59-5.2,4.13-11.87,3.73-18.28-.14-2.18-2.25-3.09-3.49-4.56-.03-.69-.05-1.38-.08-2.08,1.96.02,5.14,3.03,5.01-2.05.66-.34,1.31-.67,1.97-1.01Z"/>
      <path d="M280.21,97.91c3.34.26,4.91,1.78,4.78,5.41-.11,3.03.14,6.08.69,9.19.61,3.39-2.67,6.29-5.09,8.89-.03.03-.28-.11-.38-.22-.11-.12-.16-.29-.24-.43,1.83-7.6.88-15.22.24-22.84Z"/>
      <path d="M249.99,121.06c-6.17-.99-12.29-2.23-18.41.62-3.62,1.69-5.32,4.04-4.33,8.03-1.01.35-2.01.7-3.02,1.06-.66-2.68,3.04-5.51-.44-8.21-.85-.66.76-1.15,1.31-1.37,8.93-3.64,17.99-5.37,27.36-1.57-.94.28-1.98.4-2.48,1.44Z"/>
      <path d="M266.08,165.75c-1.56-2.98-1.77-5.98-.09-8.99.08,1.3.16,2.59.24,3.89.76-7.16,4.67-12.16,11.37-15.44-3.84,6.85-7.68,13.69-11.52,20.54Z"/>
      <path d="M251.15,142.71c-4.92-.57-9.8-.87-14.79-.4-4.09.38-5.85-4.34-9.47-5.35,1.57-2.93,3.77-2.85,6.26-1.29-.29.44-.78.47-1.21.66-.22.1.29.17.45.28,4.38,3.08,9.8,1.62,14.5,3.3,2.3-.4,3.19,1.34,4.25,2.81Z"/>
      <path d="M251.97,223.09c-3.68-4.91-8.9-9.02-8.18-16.27,1.69,5.86,6.97,9.44,9.2,14.96-.34.44-.68.88-1.02,1.31Z"/>
      <path d="M246.9,139.91c-5.62.13-11.55,1.7-16.17-3.71.81-.17,1.62-.35,2.43-.52,4.64,1.23,9.58,1.47,13.74,4.23Z"/>
      <path d="M302.16,100.63c1.88.52,2.24,1.75,2.89,2.66,1.07,1.47,2.26,3.03.95,4.95-.55.81-1.48.77-2.2.28-1.7-1.16-3.16-2.51-2.48-4.9.27-.94.53-1.88.84-2.99Z"/>
      <path d="M272.99,191.96c-3.98-3.14-7.95-6.27-11.93-9.41,5.29,1.42,9.73,4.08,13.37,7.99l-1.44,1.42Z"/>
      <path d="M182.07,115.71c-.67-.33-1.34-.65-2.01-.98,2.74-2.38,5.61-4.56,9.3-5.51-1.89,2.78-4.23,5.03-7.29,6.49Z"/>
      <path d="M272.17,197.72c-4.1-.27-8.09-1.09-13.26-2.94,6.37.56,11.47.02,16.34,1.87-.98.48-2.33-.09-3.08,1.06Z"/>
      <path d="M200.5,4.29c5.9,7.2,11.81,14.39,17.71,21.59-7.5-5.79-13.7-12.73-18.85-20.58.38-.34.76-.67,1.14-1.01Z"/>
    </g>
  </g>
</svg>