<?xml version="1.0" encoding="UTF-8"?>
<svg id="Layer_2" data-name="Layer 2" xmlns="http://www.w3.org/2000/svg" viewBox="0 0 122.33 75.69">
  <defs>
    <style>
      .cls-1 {
        fill-rule: evenodd;
      }
    </style>
  </defs>
  <g id="Layer_1-2" data-name="Layer 1">
    <g>
      <g>
        <polygon class="cls-1" points="6.18 33.1 5.07 35.97 13.08 35.97 11.99 33.1 6.18 33.1"/>
        <polygon class="cls-1" points="0 0 0 35.97 .95 35.97 6.86 21.79 11.32 21.79 17.21 35.97 18.16 35.97 18.16 0 0 0"/>
        <polygon class="cls-1" points="7.13 30.63 11.06 30.63 9.11 25.46 7.13 30.63"/>
      </g>
      <g>
        <polygon class="cls-1" points="51.6 48.52 49.63 43.32 47.64 48.52 51.6 48.52"/>
        <polygon class="cls-1" points="51.85 39.64 57.78 53.89 53.63 53.89 52.53 51 46.69 51 45.58 53.89 41.43 53.89 47.37 39.64 40.53 39.64 40.53 75.69 58.68 75.69 58.68 39.64 51.85 39.64"/>
      </g>
      <g>
        <g>
          <path class="cls-1" d="M42.57,25.24h-4.9v10.73h-4.02v-10.73h-4.9v-3.45h13.82v3.45Z"/>
          <path class="cls-1" d="M68.76,28.87c0,4.34-2.96,7.28-7.59,7.28-5.27,0-7.58-3.68-7.58-7.28,0-4.63,3.3-7.27,7.58-7.27,5.06,0,7.59,3.34,7.59,7.27ZM64.65,28.87c0-1.87-1.01-3.63-3.48-3.63-2.11,0-3.47,1.41-3.47,3.63s1.32,3.64,3.47,3.64,3.48-1.41,3.48-3.64Z"/>
          <path class="cls-1" d="M95.86,29.62c0,4.32-3.03,6.54-7.05,6.54s-7.07-2.15-7.07-6.54v-7.83h4.02v6.72c0,2.43.9,4.08,3.05,4.08,2.01,0,3.02-1.5,3.02-4.06v-6.74h4.03v7.83Z"/>
          <path class="cls-1" d="M122.33,25.24h-4.9v10.73h-4.02v-10.73h-4.9v-3.45h13.82v3.45Z"/>
          <path class="cls-1" d="M10.78,48.12h-5.58v5.77H1.15v-14.25h9.63v2.86h-5.58v2.76h5.58v2.87Z"/>
          <path class="cls-1" d="M33.27,53.89h-4.35l-1.06-2.53c-.39-.92-.74-1.6-1.05-2.03-.64-.88-1.15-1-2.05-1h-.46v5.56h-4.05v-14.25h6.9c3.28,0,4.74,2.42,4.74,4.42,0,1.71-.76,2.82-2.2,3.56,1.06.65,1.43,1.35,2.22,3.18l1.36,3.1ZM27.76,44.14c0-1.27-.7-1.77-2.6-1.77h-.85v3.43h.87c1.85,0,2.58-.28,2.58-1.67Z"/>
          <path class="cls-1" d="M81.88,53.89h-3.61l-6.97-7.94v7.94h-4.02v-14.25h3.6l6.95,7.9v-7.9h4.04v14.25Z"/>
          <path class="cls-1" d="M103.11,52.82c-1.82,1.01-3.64,1.25-5.31,1.25-4.97,0-7.6-3.25-7.6-7.32,0-5.15,3.74-7.31,7.66-7.31,1.53,0,3.26.36,5.19,1.08v3.79c-.67-.44-1.32-.8-1.97-1.1-.65-.29-1.41-.44-2.29-.44-2.57,0-4.45,1.74-4.45,4.04,0,2.08,1.67,3.94,4.23,3.94,1.13,0,2.3-.29,3.32-.81.4-.21.81-.45,1.23-.73v3.61Z"/>
          <path class="cls-1" d="M122.33,53.89h-10.13v-14.25h9.97v2.86h-5.92v2.61h5.64v2.87h-5.64v3.04h6.08v2.87Z"/>
        </g>
        <g>
          <path class="cls-1" d="M42.57,25.24h-4.9v10.73h-4.02v-10.73h-4.9v-3.45h13.82v3.45Z"/>
          <path class="cls-1" d="M68.76,28.87c0,4.34-2.96,7.28-7.59,7.28-5.27,0-7.58-3.68-7.58-7.28,0-4.63,3.3-7.27,7.58-7.27,5.06,0,7.59,3.34,7.59,7.27ZM64.65,28.87c0-1.87-1.01-3.63-3.48-3.63-2.11,0-3.47,1.41-3.47,3.63s1.32,3.64,3.47,3.64,3.48-1.41,3.48-3.64Z"/>
          <path class="cls-1" d="M95.86,29.62c0,4.32-3.03,6.54-7.05,6.54s-7.07-2.15-7.07-6.54v-7.83h4.02v6.72c0,2.43.9,4.08,3.05,4.08,2.01,0,3.02-1.5,3.02-4.06v-6.74h4.03v7.83Z"/>
          <path class="cls-1" d="M122.33,25.24h-4.9v10.73h-4.02v-10.73h-4.9v-3.45h13.82v3.45Z"/>
          <path class="cls-1" d="M10.78,48.12h-5.58v5.77H1.15v-14.25h9.63v2.86h-5.58v2.76h5.58v2.87Z"/>
          <path class="cls-1" d="M33.27,53.89h-4.35l-1.06-2.53c-.39-.92-.74-1.6-1.05-2.03-.64-.88-1.15-1-2.05-1h-.46v5.56h-4.05v-14.25h6.9c3.28,0,4.74,2.42,4.74,4.42,0,1.71-.76,2.82-2.2,3.56,1.06.65,1.43,1.35,2.22,3.18l1.36,3.1ZM27.76,44.14c0-1.27-.7-1.77-2.6-1.77h-.85v3.43h.87c1.85,0,2.58-.28,2.58-1.67Z"/>
          <path class="cls-1" d="M81.88,53.89h-3.61l-6.97-7.94v7.94h-4.02v-14.25h3.6l6.95,7.9v-7.9h4.04v14.25Z"/>
          <path class="cls-1" d="M103.11,52.82c-1.82,1.01-3.64,1.25-5.31,1.25-4.97,0-7.6-3.25-7.6-7.32,0-5.15,3.74-7.31,7.66-7.31,1.53,0,3.26.36,5.19,1.08v3.79c-.67-.44-1.32-.8-1.97-1.1-.65-.29-1.41-.44-2.29-.44-2.57,0-4.45,1.74-4.45,4.04,0,2.08,1.67,3.94,4.23,3.94,1.13,0,2.3-.29,3.32-.81.4-.21.81-.45,1.23-.73v3.61Z"/>
          <path class="cls-1" d="M122.33,53.89h-10.13v-14.25h9.97v2.86h-5.92v2.61h5.64v2.87h-5.64v3.04h6.08v2.87Z"/>
        </g>
      </g>
    </g>
  </g>
</svg>