<?xml version="1.0" encoding="UTF-8"?>
<svg id="Layer_1" xmlns="http://www.w3.org/2000/svg" version="1.1" viewBox="0 0 2426.5 2298.7">
  <!-- Generator: Adobe Illustrator 29.7.1, SVG Export Plug-In . SVG Version: 2.1.1 Build 8)  -->
  <defs>
    <style>
      .st0 {
        fill-rule: evenodd;
      }
    </style>
  </defs>
  <path class="st0" d="M1205.3,761.5c-14.2,14.2-76.3,101.2-78.1,223.7-1.8,120.7,78.1,245,78.1,245,0,0,72.8-97.6,76.3-227.2,1.8-127.8-72.7-234.3-76.3-241.4h0Z"/>
  <path class="st0" d="M1590.4,1972.1c-9.6-5.8-20.7-8.9-31.9-8.9-16,0-30.2,5.3-42.6,17.8-12.4,10.6-17.7,30.2-17.7,56.8h0c0,21.3,5.3,37.3,17.8,49.7,10.6,12.4,24.8,19.5,42.6,19.5s31.9-7.1,44.4-19.5c10.6-12.4,16-30.2,16-53.3s-1.8-26.6-7.1-37.3c-3.6-10.7-10.7-19.5-21.3-24.9Z"/>
  <path class="st0" d="M347.9,2004c-1.8-3.5-3.5-7.1-5.3-10.6-1.8-1.8-3.5-1.8-5.3-3.5-1.8-1.8-5.3-1.8-7.1-3.6h-5.3c-10.7-1.8-21.3-1.8-32-1.8v101.2c10.6,0,21.3,0,33.7-1.8h3.5c3.6-1.8,5.3-1.8,8.9-3.6l5.3-5.3c5.3-8.9,7.1-19.5,7.1-30.2,1.8-12.4,1.8-24.9-1.8-35.5l-1.8-5.3Z"/>
  <path class="st0" d="M0,0v2298.7h0s2426.5,0,2426.5,0V0H0ZM401.2,2051.9l-1.8,10.7-1.8,8.9-3.6,8.9-3.5,8.9-3.5,3.5-1.8,5.3-3.6,3.6-3.5,3.5-5.3,5.3-5.3,3.5-7.1,5.3-7.1,1.8-7.1,3.5c-3.6,0-8.9,1.8-12.4,1.8h-88.8v-184.6h74.6c7.1,0,12.4,1.8,17.8,1.8l8.9,1.8c3.6,0,7.1,1.8,10.7,3.5l3.5,1.8,3.6,1.8,7.1,5.3,3.6,3.5,5.3,5.3,5.3,7.1,5.3,7.1,3.5,8.9,3.6,8.9,1.8,8.9,1.8,10.6v33.7ZM571.6,2076.8l-3.6,7.1-1.8,7.1-3.6,5.3-3.6,5.3-3.5,5.3-5.3,3.6-5.3,5.3-5.3,3.5-5.3,1.8-5.3,3.5-5.3,1.8-7.1,1.8-7.1,1.8h-23.1l-7.1-1.8-8.9-1.8-8.9-3.5-7.1-3.5-7.1-3.5-5.3-5.3-7.1-5.3-5.3-7.1-5.3-7.1-3.6-7.1-3.6-8.9-3.5-8.9-1.8-8.9v-42.6l1.8-8.9,3.5-8.9,3.6-8.9,3.6-8.9,5.3-7.1,5.3-7.1,7.1-5.3,5.3-5.3,7.1-5.3,8.9-3.5,7.1-1.8,8.9-1.8,8.9-1.8h26.6l7.1,1.8,7.1,3.5,7.1,1.8,5.3,3.5,7.1,5.3,5.3,3.5,3.6,3.6,1.8,3.5,3.6,3.5,1.8,5.3,3.5,3.5,1.8,5.3,1.8,5.3,3.6,10.6-47.9,12.4-1.8-8.9-1.8-5.3-3.6-5.3-3.5-3.5-3.6-1.8-3.6-3.5-5.3-1.8h-16l-3.6,1.8-3.5,1.8h-1.8l-3.5,3.6-1.8,1.8-3.6,1.8-1.8,3.5-1.8,3.5-1.8,3.5-1.8,5.3-1.8,5.3v5.3l-1.8,7.1v14.2l1.8,7.1v5.3l1.8,7.1,1.8,3.5,1.8,5.3,1.8,3.5,1.8,1.8,1.8,3.5,3.5,1.8,3.5,1.8,1.8,1.8,3.5,1.8h3.6l3.5,1.8h8.9l5.3-1.8,5.3-1.8,3.6-3.6,1.8-1.8,3.5-5.3,3.6-5.3,1.8-7.1,3.6-12.4h0s46.2,16,46.2,16l-3.6,12.4ZM724.3,2099.9c-5.3,8.9-14.2,16-23.1,21.3-10.6,3.5-23.1,5.3-39.1,5.3-23.1,0-40.8-5.3-51.5-16-12.5-8.9-19.6-24.9-21.4-44.4h0l33.7-3.5c1.8,12.4,7.1,19.5,12.4,24.9,7.1,7.1,16,8.9,26.6,8.9s19.5-1.8,26.6-7.1c5.3-5.3,8.9-10.7,8.9-17.8s-1.8-7.1-3.5-10.6c-3.5-1.8-7.1-5.3-14.2-7.1-3.5-1.8-12.4-3.5-28.4-7.1-19.5-5.3-31.9-10.6-40.8-17.7-10.6-10.7-16-23.1-16-35.5s3.6-17.8,7.1-26.6c6-7.8,14-13.9,23.1-17.8,8.9-3.5,21.3-5.3,35.5-5.3,21.3,0,39.1,3.5,49.7,14.2,10.6,8.9,17.7,23.1,17.7,39l-35.5,1.8c-1.8-8.9-5.3-16-10.6-19.5-5.3-5.3-12.4-7.1-23.1-7.1s-17.7,3.5-23.1,7.1c-3.5,3.5-7.1,7.1-7.1,10.7,0,5.3,1.8,8.9,5.3,10.6,5.3,3.5,16,8.9,33.7,12.4,17.7,3.5,30.2,8.9,39.1,12.4,7.7,4.5,14.3,10.5,19.5,17.8,5.3,8.9,7.1,17.8,7.1,28.4s-3.5,19.5-8.9,28.4ZM905.3,2122.9h-35.5v-76.3h-71v76.3h-35.5v-177.5h35.5v71h71v-71h35.5v177.5ZM1084.6,2101.6c-16,17.7-37.3,24.8-63.9,24.8s-46.1-7.1-62.1-23.1c-16-17.7-23.1-39-23.1-67.4s1.8-33.7,7.1-46.2c4.9-8.4,10.9-16.2,17.8-23.1,7.1-7.1,14.2-12.4,23.1-16,10.6-5.3,23.1-7.1,37.3-7.1,26.6,0,47.9,7.1,63.9,23.1,14.2,16,23.1,39,23.1,69.2s-8.9,49.7-23.1,65.7ZM1270.9,2122.9h-134.9v-177.5h131.3v30.2h-95.9v39.1h88.8v30.2h-88.8v49.7h99.4v28.4ZM1425.4,2112.3c-12.4,8.9-28.4,14.2-46.2,14.2s-35.5-3.5-47.9-10.6c-10.7-8.9-21.3-19.5-26.7-35.5-7.1-14.2-8.9-30.2-8.9-46.2s3.5-35.5,10.7-49.7c7.1-12.4,16-23.1,30.2-30.2,12.4-7.1,26.6-10.7,42.6-10.7s32,3.5,44.4,12.4c12.4,8.9,21.3,23.1,24.8,39.1l-23.1,5.3c-3.5-12.4-8.9-23.1-17.7-28.4-7.1-5.3-17.8-8.9-28.4-8.9s-24.8,3.5-35.5,8.9c-8.9,7.1-14.2,16-19.5,26.6-3.5,12.4-5.3,23.1-5.3,35.5s3.5,26.7,7.1,39.1c5.3,10.7,10.6,19.5,21.3,24.9,8.9,5.3,19.5,8.9,30.2,8.9s23.1-3.5,32-12.4c10.6-7.1,16-17.8,19.5-33.7h0s23.1,7.1,23.1,7.1c-5.3,19.5-14.2,33.7-26.6,44.4ZM1633,2083.9c-6.7,13.4-17.2,24.5-30.2,31.9-14.2,7.1-28.4,10.6-44.4,10.6s-32-3.5-44.4-12.4c-13-7.4-23.5-18.5-30.2-31.9-6.9-13.8-10.5-29-10.6-44.4h0c0-30.2,8.9-53.2,24.8-69.2,16-17.8,35.5-24.9,60.4-24.9s31.9,3.5,44.4,10.7c14.2,8.9,23,19.5,30.2,33.7,7.1,14.2,10.6,30.2,10.6,47.9s-3.5,33.7-10.6,47.9ZM1815.8,2046.6c0,8.9,0,16-1.8,24.9,0,3.5,0,8.9-1.8,12.4l-1.8,7.1-1.8,7.1-3.5,5.3-3.6,5.3-5.3,5.3-5.3,3.5-5.3,3.5-7.1,3.5-3.5,1.8-8.9,1.8-8.9,1.8h-21.3c-5.3,0-10.7,0-16-1.8h-5.3l-3.5-1.8-3.5-1.8-8.9-1.8-5.3-5.3-5.3-3.5-5.3-3.5c-1.8-3.6-3.5-5.3-5.3-8.9-1.8-1.8-3.5-5.3-5.3-7.1l-1.8-7.1c-1.8-3.5-1.8-7.1-1.8-10.7-1.8-5.3-1.8-10.6-1.8-16v-118.9h47.9v126c0,1.8,1.8,5.3,1.8,7.1,1.8,1.8,1.8,3.5,3.5,3.5l5.3,5.3,3.5,1.8h3.6l7.1,1.8h8.9c1.8-1.8,3.5-1.8,7.1-1.8l3.5-1.8c1.8-1.8,3.5-3.6,3.5-5.3l3.5-3.5c0-5.3,1.8-8.9,1.8-14.2v-118.9h47.9v104.7ZM1975.6,2098.1l-1.8,3.6-3.5,3.5-1.8,3.5-3.5,3.5-3.5,1.8-3.5,3.5-3.6,1.8-3.5,1.8-3.5,1.8-3.5,1.8-5.3,1.8-5.3,1.8h-8.9l-10.6,1.8h-14.2l-8.9-1.8h-7.1l-7.1-1.8-7.1-3.5-5.3-1.8-5.3-3.5-5.3-3.5-5.3-5.3-3.6-5.3-3.5-5.3-3.5-5.3-1.8-5.3-3.5-7.1v-7.1l-3.5-14.2h0s47.9-5.3,47.9-5.3l1.8,10.7,1.8,5.3,1.8,5.3,3.5,5.3,3.5,1.8,3.5,3.5h5.3l7.1,1.8h12.4l5.3-1.8,3.6-1.8,5.3-5.3,1.8-1.8c1.8-3.5,1.8-7.1,0-10.6-1.8-3.6-7.1-5.3-10.7-7.1l-3.5-1.8c-12.4-1.8-24.8-5.3-35.5-8.9l-7.1-1.8-5.3-3.5-5.3-1.8-3.5-1.8-3.5-3.5-3.5-1.8-5.3-5.3-3.5-3.6-3.5-5.3-1.8-3.5-1.8-5.3-1.8-5.3v-5.3l-1.8-7.1v-3.5l1.8-7.1,1.8-7.1,3.5-7.1,1.8-1.8,1.8-3.5,3.5-3.6,1.8-1.8,3.5-3.5,3.5-1.8,3.5-3.5,7.1-3.5,7.1-1.8,8.9-1.8,10.6-1.8h24.8l7.1,1.8,7.1,1.8,7.1,1.8,5.3,3.5,5.3,1.8,5.3,5.3,5.3,3.5,3.5,5.3,3.5,3.5,1.8,5.3,1.8,5.3,1.8,7.1,1.8,5.3v12.4l-46.2,3.6c-1.8-5.3-1.8-10.7-3.6-14.2,0-1.8-1.7-3.5-3.5-5.3,0-1.8-1.8-1.8-3.5-3.5-1.8,0-3.5-1.8-5.3-1.8s-5.3,0-7.1-1.8c-3.6,0-7.1,0-8.9,1.8h-5.3c-3.5,1.8-8.9,3.5-10.6,5.3-1.8,3.6-1.8,5.3,0,7.1,3.5,3.6,7.1,5.3,10.6,7.1,5.3,0,8.9,1.8,14.2,3.5l12.4,3.6c8.9,1.8,16,3.6,24.9,7.1l7.1,3.5,7.1,3.5,5.3,5.3,5.3,5.3,3.5,5.3,1.8,3.5,1.8,3.5,1.8,3.5,1.8,3.5,1.8,8.9v12.4l-1.8,3.5v8.9l-1.8,3.5-1.8,3.5-1.8,3.5ZM2117.6,2126.5l-16-39h-58.6l-14.2,39h-51.5l72.8-184.6h44.4l74.6,184.6h-51.5ZM2176.2,1814.1h-349.7c-101.2,0-315.9-17.8-417.1-56.8-101.2-39-204.1-99.4-204.1-99.4,0,0-103,60.4-250.3,108.3-147.3,47.9-376.3,47.9-376.3,47.9H230.8v-543.2h347.9v220.1s63.9,10.6,159.7,1.8c95.8-8.9,197-46.1,197-46.1,0,0-170.4-161.5-166.8-452.6,1.8-292.9,150.9-422.5,150.9-422.5,0,0-40.8-37.3-154.4-51.5-111.8-14.2-186.4-5.3-186.4-5.3v562.7l-347.9-3.6V186.4h347.9c152.7,0,223.7,0,429.5,56.8,207.7,56.8,197,92.3,197,92.3,0,0,131.3-65.7,211.2-87,79.9-19.5,191.7-62.1,410-62.1h349.7v477.5h-349.7v-159.8s-136.7-14.2-255.6,16c-120.7,30.2-99.4,39-99.4,39,0,0,163.3,181.1,165.1,445.6,3.5,266.2-156.2,424.2-156.2,424.2,0,0,69.2,42.6,182.8,46.2,111.8,1.8,163.3,0,163.3,0v-204.1h349.7v543.2ZM2083.9,1034.8l19.5,136.7-97.6-99.4-95.8,99.4,19.5-136.7-138.5-12.4,118.9-72.8-76.3-115.4,129.6,47.9,42.6-131.4h0s0,0,0,0h0s44.4,131.4,44.4,131.4l129.6-47.9-76.3,115.4,118.9,72.8-138.4,12.4Z"/>
  <path class="st0" d="M1020.6,1973.8c-14.2,0-26.6,5.3-35.5,14.2-8.9,10.6-12.4,26.6-12.4,46.1s3.6,35.5,12.4,46.2c10.6,10.7,21.3,16,35.5,16s26.6-5.3,35.5-16c8.9-10.6,14.2-24.8,14.2-46.2s-5.3-35.5-14.2-46.1c-8.9-8.9-19.5-14.2-35.5-14.2Z"/>
  <polygon class="st0" points="2059.1 2046.6 2085.7 2046.6 2071.5 2009.4 2059.1 2046.6"/>
</svg>