<?xml version="1.0" encoding="UTF-8"?>
<svg id="Layer_2" data-name="Layer 2" xmlns="http://www.w3.org/2000/svg" viewBox="0 0 2513.44 347.02">
  <g id="Layer_1-2" data-name="Layer 1">
    <g>
      <path d="M303.13,347.02c-1.03-1.11-3.29-1.07-3.84-2.59-1.56-4.3,2.56-25.93-3.71-26.97-18.69,11.42-38.66,23.28-61.22,24.67-20.95,1.29-44.98-3.92-55.18-24.07-14.7-29.04-3.06-100.03-6.88-135.37-.71-6.59-2.5-10.92-8.1-14.64-6.25-4.16-18.9-4.78-10.95-15.48,8.51-.18,17.05-.97,25.45-2.27,6.19-.96,21.82-6.1,25.92-5.85,2.13.13,4.26,1.1,4.36,3.47l-1.94,25.71c1.27,31.64-1.55,64.39,0,95.9,1.7,34.84,13.07,54.91,51.76,50.55,24.51-2.76,38.99-16.09,40.43-40.67,1.53-26.21,2.15-70.24-1.16-95.74-.86-6.65-2.35-10.85-8.1-14.64-4.58-3.02-16.56-5.14-17.36-10.4-.3-1.67.95-4.36,2.25-5.28,2.21-1.58,15.89-1.44,19.87-1.91,5.17-.6,10.56-1.27,15.69-2.13,5.98-1,14.14-4.21,19.08-4.72,1.5-.16,3.96-.48,4.91.87l-.61,145.8c1.18,8.13.97,24.06,10.91,26.65,7.1,1.85,14.95-1.58,22.15-1.56,2.06.48,2.64,11.5-.07,12.9-20.63,4.83-43.15,7.02-61.65,17.77h-1.98Z"/>
      <path d="M709.11,347.02h-1.98c-8.56-4.58-.9-21.49-4.87-27.99-.39-.64-1.23-1.09-1.95-1.18-2.4-.28-18.82,10.93-22.84,12.92-39.64,19.61-96.05,18.24-100.09-36.55-2.66-35.95,4.23-78.46-1.06-113.52-.54-3.59-1.9-7.73-4.45-10.38-5.7-5.94-23.73-6.68-13.57-17.68,8.75-.54,17.6-1.05,26.25-2.46,4.77-.78,25.25-6.84,27.59-5.21,2.5,3.92.02,8.78-.11,12.86-1.14,37-2.29,83.05,0,119.61,1.44,23.04,11.13,40.95,36.15,42.96,22.06,1.76,52.22-7.9,54.87-33.25,3.47-33.23-1.37-73.62-1.12-107.29-1.6-6.47-4.52-9.48-10.27-12.48-2.76-1.44-12.15-3.92-13.33-5.46-2-2.6-1.51-9.04,2.59-9.45,13.79-.4,27.58-1.9,41.1-4.44,4.19-.79,15.22-5.92,17.34-1.5.68,1.41-1.15,20.7-1.57,24.15,1.31,36.94-1.59,74.89,0,111.7.35,8.03.96,23.95,5.16,30.41,3.58,5.5,7.02,5.89,13.25,5.63,3.39-.14,12.44-2.67,14.66-1.92,3.35,1.13,3.51,11.51-.58,13.01-20.61,4.69-42.49,7.07-61.16,17.52Z"/>
      <path d="M67.69,171.43l-1.27,5.16c2.12,41.43-2.68,85.4,0,126.52,1.68,25.89,15.02,19.37,35.59,22.28,1.4,4.21,1.4,7.22-.79,11.13-1.65,2.07-9.73-.33-12.44-.41-25.88-.74-51.45-.54-77.27.05-3.25.07-7.56,2.95-9.86-1.04-7.35-12.73,11.69-10.27,18.32-12.25,8.94-2.67,10.31-9.42,10.88-17.79l-.04-131.42c-1.38-7.47-24.61-.1-27.23-5.42-1.34-2.71-.8-5.48,1.52-7.38,5.2-4.28,22.45-8.8,25.16-14.41,2.95-6.08.97-18.16,1.5-25.17,3.37-44.54,20.06-96.65,65.04-114.89,21.14-8.57,59.55-11,75.12,8.74,13.8,17.5-6.64,38.23-22.31,26.21-9.12-6.99-12.95-15.57-25.45-20.05-26.08-9.35-43.01,6.82-50.27,30.4-9.28,30.11-7.16,64.9-7.23,96.1l1.78,2.18,57.91.52c7.11,1.35,4.02,18.54-1.97,19.71-16.69,1.11-35.04-1.4-51.51-.02-1.81.15-3.63.15-5.17,1.26Z"/>
      <path d="M522.79,166.09l-57.78.15c-5.43.17-6.08,3.82-6.46,8.37,4.49,35.55-7.58,93.71,4.22,126.25,6.55,18.08,25.94,24.76,43.62,18.28,4.47-1.64,13.77-10.86,16.81-4.49,2.55,5.34-3.76,10.4-7.7,13.57-18.17,14.64-48.85,18.36-70.14,8.77-17.2-7.75-21.43-25.44-22.46-42.79-2.41-40.27,2.06-82.79-.17-123.3-1.91-9.37-22.34-1.11-25.04-6.62-.86-1.75-.88-5.19,0-6.94.8-1.61,16.59-6.92,19.99-8.7,21.14-11.04,32-33.18,29.9-56.84-4.19-47.06-66.96-70.81-99.86-35.66-.57,1.51,2.69,2.4,3.94,3.92,19.47,23.77-13.06,49.76-31.71,29.65-17.65-19.02,10.67-46.95,27.7-55.38,48.35-23.92,107.75,6.92,111.93,61.3.55,7.15-1.13,46.5.47,48.92,2,1.54,4.51,1.78,6.93,1.98,17.46,1.42,36.66-1.3,54.31.15,6.34,4.7,4.79,13.2,1.51,19.39Z"/>
      <path d="M1698.16,143.78c28.74-.78,48.42,14.57,50.7,43.68,2.62,33.37-5.55,71.56-2.99,104.73,1.93,24.96,15.41,37.9,39.28,23.39,10.7,5.84-6.95,17.67-12.87,20.76-15.98,8.36-37.48,8.37-50.72-5.09-6.76-6.87-4.93-13.38-17.31-7.46-23.26,11.12-35.8,25.38-64.88,15.36-21.85-7.53-34.28-34.35-25.1-55.73,10.25-23.87,72.97-34.63,95.3-46.19,1.84-1.1,3.92-3.37,4.39-5.5.64-2.87,1.06-11.06,1.24-14.57,1.01-19.96.51-46.83-22.81-53.38-12.78-3.59-35.65-.65-40.65,13.78s3.01,20.21-16.27,27.24c-15.45,5.63-30.26,6.11-19.71-14.72,11.55-22.82,57.4-45.62,82.4-46.3ZM1711.96,254.41c-1.44-1.44-4.05-1.16-5.9-1-9.71.85-35.2,10.48-43.68,15.77-14.11,8.81-19.21,21.98-11.14,37.39,10.09,19.28,33.31,16.72,49.37,6.66,8.48-5.31,10.75-10.09,11.57-20.07.7-8.54,1.74-25.48,1.05-33.61-.13-1.53-.17-4.06-1.27-5.15Z"/>
      <path d="M1422.06,170.22c-17.43-9.64-36-13.56-55.65-8.61-89.17,22.46-45.83,170.12,48.35,147.01,15.11-3.71,28.68-12.1,36.81-25.51,3.83-6.32,6.11-21.48,15.01-13.57,3.49,3.1-1.49,15.32-3.16,19.46-24.88,61.66-116.64,72.06-156.03,16.84-57.86-81.09,21.77-189.53,115.46-160.61,23.78,7.34,67.36,37.55,39.72,64.87-25.89,25.59-65.24-12.35-40.49-39.88Z"/>
      <path d="M2422.3,268.13c18.49-2.89,4.06,24.31-.34,31.76-30.14,51-109.76,58.15-147.31,11.05-57.62-72.3.3-176.4,91.55-169.36,27.56,2.12,89.18,32.22,62.41,66.18-23.38,29.66-67.6-5.7-43.47-35.52.73-2.66-13.28-8.15-15.92-8.97-36.65-11.4-78.86,8.41-86.23,47.39-6.99,36.94,12.55,79.55,47.41,95.05s81.58,1.12,91.9-37.57Z"/>
      <path d="M1575.37,325.46c1.62,2.54,1.86,9.62-.8,11.2-2.87,1.7-6.53-.39-9.43-.49-24.5-.87-48.76-.58-73.31-.05-5.54.12-11.8,4.01-12-5.56-.18-8.3,13.17-5.77,19.49-7.72,14.31-4.4,10.29-20.19,10.84-31.66,3.4-71.53,4.21-156.74,0-228.09-.47-8.01,1.55-16.05-3.49-23.18-3.39-4.8-25.44-14.19-14.59-20.62,4.52-2.67,16.47-5.11,22.33-7.36,5.09-1.95,24.92-11.52,27.99-11.67,1.21-.06,2.41-.08,3.52.5,1.51,1.05,1.05,13.13.96,15.91-2.95,95.89.05,192.32-1.02,288.37,1.69,19.93,13.01,18.13,29.52,20.43Z"/>
      <path d="M1057.48,143.8c28.12-.58,59.36,14.41,67.01,43.21,1.55,5.84,3.44,19.83.34,25.01-1.65,2.75-13.47,3.46-17.12,3.66-35.25,1.95-72.06-1.97-107.46.48-1.42,1.01-2.63,2.14-2.97,3.95-1.93,10.27,1.13,29.95,4.21,40.2,7.81,25.94,27.31,47.5,54.36,53.44,19.27,4.23,37.54,2.9,52.83-10.17,4.49-3.84,9.3-13.31,15.33-10.4,7.55,3.65-4.17,17.5-7.42,21.25-22.44,25.92-60.66,33.18-92.81,23.42-93.78-28.47-70.2-191.89,33.7-194.05ZM1002.21,200.84c21.6-1.04,44.44,1.37,65.89.04,15.84-.98,25.18-1.34,22-20.06-3.28-19.32-27.1-24.3-43.58-22.21-18.74,2.38-43.87,22.21-44.32,42.22Z"/>
      <path d="M2081.8,192.67c-1.15-.95-7.92-15.99-11.17-19.96-21.76-26.55-67.13-16.88-60.15,20.49,3.25,17.39,33.58,29.95,47.21,38.84,17.3,11.29,31.18,23.45,35.29,44.8,11.39,59.13-60.86,76.86-104.51,58.81-10.71-4.43-12.88-5.97-15.4-17.23-1.72-7.72-3.16-19.34-3.42-27.2-.16-4.77-1.28-11.08,4.14-12.71,8.68-2.62,8.49,7.32,11.21,13.2,5.8,12.54,13.05,24.95,25.57,31.79,20.95,11.45,51.29,3.68,52.16-23.42,1.53-47.62-88.08-46.92-83.06-107.5,3.28-39.55,43.64-51.68,77.59-48.02,5.52.59,22.76,3.82,26.64,7.01,4.27,3.5,10.95,35.68,7.63,39.99-1.69,2.19-7.62,2.87-9.74,1.13Z"/>
      <path d="M1920.39,192.67c-.87-.72-5.54-11.54-7.16-14.09-5.29-8.31-12.4-15.3-21.82-18.73-33.66-12.25-58.96,24.03-32.19,48.9,22.91,21.29,62.14,27.25,71.1,63.41,15.43,62.28-57.68,83.13-103.93,63.17-7.26-3.13-11.61-4.95-13.9-12.81-2.36-8.1-3.91-21.85-4.24-30.34-.26-6.63-1.88-14.41,7.18-14.06,5.36.21,6.25,9.51,8.48,14.24,10.84,22.98,25.53,39.85,53.69,35.44,13.83-2.17,23.65-14.94,23.8-28.7.51-46.22-87.38-46.38-83.29-105.72,2.78-40.42,44.01-52.75,78.63-48.73,5.02.58,24.07,4.18,26.81,7.82,3.16,4.19,9.18,34.1,7,38.49-1.9,2.69-7.77,3.66-10.15,1.7Z"/>
      <path d="M868.53,170.7l1.98,1c15.16-12.29,38.91-33.43,59.98-26.26,19.66,6.69,14.15,36.62-5.01,38.59-15.34,1.58-23.39-15.65-40.79-9.07-13.16,4.98-15.4,19.74-16.2,32.24-1.72,27.05-1.86,67.94,0,94.91.32,4.69,1.2,12.03,3.99,15.77,6.41,8.58,23.01,5.53,32.55,7.53,1.52,3.44,1.84,7.52-.33,10.76-2.64,2.6-9.5.04-12.86-.07-25.5-.81-50.9-.79-76.33,0-2.67.08-5.04,1.44-7.7.91-3.05-.98-3.25-8.18-2.21-10.8,10.9-4.02,24.28-.85,27.05-15.48-.49-38.05,4.8-82.58,1.09-120.15-.45-4.56-1.31-8.9-4.39-12.42-3.53-4.03-15.01-8.44-14.14-14.16.71-4.62,12.86-7.75,17.03-9.75,11.21-5.39,22.31-11.84,33.6-16.52.69.18,2.68,2.04,2.68,2.33v30.62Z"/>
      <path d="M2200.22,138.75c-.6,11.3-.47,22.65-.81,33.97-1.18,40.24-3.48,86.43-1.07,126.43.41,6.75,1.28,18.23,7.62,22.04,5.6,3.36,18.35,2.46,20.92,4.31,1.89,1.35,1.69,9.71-.76,11.16-2.65,1.57-5.76-.4-8.44-.5-27.02-.96-53.98-.99-81.01.84-3.34-1.1-3.12-8.44-1.76-11.11,2.33-3.25,22.55,1.53,26.9-11.9.99-3.05,1.73-8.59,1.96-11.87,2.55-37.09-1.92-77.14-.13-114.53-.76-3.41-2.04-6.81-4.34-9.5-4.5-5.28-16.13-7.86-13.24-16.11l49.11-24.18,5.04.96Z"/>
      <path d="M2173.37,43.02c19.71-3.35,31.51,10.86,28.89,29.81-3.79,27.37-53.05,24.63-48.17-9.54,1.35-9.48,9.78-18.65,19.28-20.27Z"/>
      <path d="M2486.29,295.92c29.22-3.85,37.16,38.24,12.4,46.93-37.76,13.25-47.39-42.33-12.4-46.93Z"/>
    </g>
  </g>
</svg>