<svg xmlns:xlink="http://www.w3.org/1999/xlink" xmlns="http://www.w3.org/2000/svg" width="173" height="63" viewBox="0 0 173 63" fill="none" crosspilot="">
  <g clip-path="url(#clip0_2481_55545)">
    <path d="M97.0426 51.9831H92.3476V52.2835L93.9126 52.5995V61.4513L92.3476 61.7673V62.0677H97.1856V61.7673L95.6365 61.4513V52.5137C95.9225 52.4435 96.3197 52.3888 96.7169 52.3888C98.1548 52.3888 98.9651 53.3446 98.9651 55.0729C98.9651 56.8011 98.1906 57.7061 96.6812 57.7061H96.2482V58.0065C96.2482 58.0065 97.8331 58.2523 97.9205 58.2718C97.992 58.2913 98.0833 58.2718 98.0992 58.2718C99.9343 57.9363 100.78 56.3993 100.78 55.0221C100.761 53.3251 99.5212 51.9831 97.0387 51.9831M68.1535 51.9831H63.4585V52.2835L65.0235 52.5995V61.4513L63.4585 61.7673V62.0677H68.2965V61.7673L66.7514 61.4513V52.5137C67.0374 52.4435 67.4346 52.3888 67.8318 52.3888C69.2697 52.3888 70.08 53.3446 70.08 55.0729C70.08 56.8011 69.3054 57.7061 67.796 57.7061H67.3631V58.0065C67.3631 58.0065 68.944 58.2523 69.0353 58.2718C69.1068 58.2913 69.1982 58.2718 69.2141 58.2718C71.0492 57.9363 71.8952 56.3993 71.8952 55.0221C71.8754 53.3251 70.6361 51.9831 68.1535 51.9831ZM170.157 54.2965H170.356C170.519 54.2965 170.662 54.2965 170.662 54.1015C170.662 53.9415 170.535 53.9259 170.411 53.9259H170.177V54.2965H170.157ZM169.978 53.7855H170.427C170.713 53.7855 170.84 53.8908 170.84 54.121C170.84 54.3316 170.713 54.4214 170.535 54.437L170.876 54.948H170.678L170.356 54.4526H170.157V54.948H169.978V53.7816V53.7855ZM170.356 55.2172C170.824 55.2172 171.182 54.8466 171.182 54.3706C171.182 53.8947 170.82 53.5397 170.356 53.5397C169.891 53.5397 169.53 53.9103 169.53 54.3706C169.53 54.831 169.891 55.2172 170.356 55.2172ZM170.356 53.3797C170.896 53.3797 171.365 53.805 171.365 54.3511C171.365 54.8973 170.916 55.342 170.356 55.342C169.796 55.342 169.347 54.9168 169.347 54.3511C169.347 53.7855 169.816 53.3797 170.356 53.3797ZM162.102 57.2848C162.642 57.2848 163.019 56.844 163.019 56.2978C163.019 55.4864 162.102 54.831 160.7 54.831C158.416 54.831 156.779 56.5436 156.779 58.701C156.779 60.8583 158.253 62.3056 160.286 62.3056C161.331 62.3056 162.336 61.7751 163.127 60.9792L163.055 60.7842C162.3 61.1002 161.617 61.3303 160.843 61.3303C159.313 61.3303 158.38 60.0781 158.38 58.3811C158.38 56.2081 159.583 55.3069 160.898 55.3069C161.168 55.3069 161.311 55.3264 161.51 55.3615C161.311 55.6073 161.168 55.9623 161.168 56.3329C161.148 56.8089 161.51 57.2848 162.102 57.2848ZM146.634 60.6749C146.094 60.9753 145.482 61.2757 145.089 61.2757C144.426 61.2757 143.993 60.7998 143.993 60.1444C143.993 59.3134 144.767 58.5917 146.638 58.5722V60.6749H146.634ZM155.881 61.541V56.9844C155.881 55.8882 155.361 54.8466 153.939 54.8466C153.093 54.8466 152.195 55.2718 151.242 56.134L151.186 56.0989L151.222 54.8622L151.151 54.8076L148.775 55.3889V55.5293L149.784 56.2003V61.4981C149.784 61.4981 149.316 61.658 149.081 61.658C148.454 61.6775 148.092 61.2172 148.092 60.7725V56.9922C148.092 55.5956 147.516 54.8037 146.043 54.8037C144.569 54.8037 142.678 55.4201 142.678 56.5007C142.678 56.9415 142.984 57.3121 143.504 57.3121C143.989 57.3121 144.315 56.922 144.315 56.5007C144.315 56.1847 144.188 55.8843 143.83 55.5995C144.172 55.4396 144.533 55.3537 144.855 55.3537C145.9 55.3537 146.654 55.8141 146.654 57.0664V58.1626C144.263 58.3928 142.428 59.0091 142.428 60.5813C142.428 61.5332 143.111 62.2237 144.172 62.2237C145.018 62.2237 145.951 61.5878 146.654 60.8973L146.71 60.9324C146.765 61.7439 147.23 62.0443 148.382 62.0443H152.267V61.8336L151.333 61.5176V56.3758C151.925 56.0599 152.378 55.9506 153.025 55.9506C154.034 55.9506 154.412 56.5319 154.412 57.6281V61.5137L153.458 61.8297V62.0248H156.91V61.8297L155.885 61.5293L155.881 61.541ZM138.436 55.9584C139.461 55.9584 139.802 56.5397 139.802 57.6359V61.541L138.849 61.857V62.0521H142.321V61.8414L141.296 61.5254V56.9688C141.296 55.8726 140.811 54.7959 139.389 54.7959C138.543 54.7959 137.697 55.3264 136.764 56.1925L136.692 56.1574C136.494 55.4318 135.953 54.8154 134.913 54.8154C134.067 54.8154 133.276 55.2562 132.339 56.1223L132.267 56.0872L132.303 54.8505L132.247 54.7959L129.872 55.3771V55.5176L130.881 56.1886V61.5215L129.856 61.8375V62.0326H133.328V61.8375L132.394 61.5215V56.3798C132.986 56.0638 133.328 55.9389 133.959 55.9389C134.984 55.9389 135.31 56.4344 135.31 57.5462V61.5215L134.372 61.8375V62.0326H137.788V61.8375L136.819 61.5215V56.4695C137.447 56.1691 137.808 55.9584 138.436 55.9584ZM128.903 56.7192C129.423 56.7192 129.765 56.329 129.765 55.8024C129.765 55.2757 129.387 54.831 128.684 54.831C127.981 54.831 127.119 55.4123 126.563 56.4032L126.492 56.368L126.528 54.8661L126.456 54.8115L124.081 55.3928V55.5332L125.09 56.2042V61.5371L124.065 61.8531V62.0482H127.699V61.8375L126.603 61.5215V56.7153C126.837 56.2549 127.358 55.8687 127.934 55.8141C128.061 56.3602 128.418 56.7153 128.907 56.7153M120.454 55.2679C119.358 55.2679 118.583 56.3641 118.583 58.5722C118.583 60.7803 119.41 61.8219 120.542 61.8219C121.674 61.8219 122.412 60.7452 122.412 58.5176C122.393 56.3251 121.602 55.2679 120.45 55.2679M120.379 62.2471C118.075 62.2471 116.871 60.6398 116.871 58.5371C116.871 56.5748 118.222 54.8466 120.577 54.8466C122.933 54.8466 124.085 56.3993 124.085 58.502C124.085 60.4799 122.754 62.2471 120.379 62.2471ZM117.141 51.3121C116.423 51.3121 115.628 51.5228 115.001 51.9831C114.139 52.6346 113.761 53.5358 113.761 54.9675V55.1275L112.717 55.5683V55.8336H113.761V61.5215L112.736 61.8375V62.0326H116.53V61.8375L115.287 61.5215V55.8336H117.249V55.1431H115.287V54.3316C115.287 52.8141 115.608 52.0885 116.403 51.8037C116.617 51.7334 116.689 51.7335 116.689 51.7335C116.562 52.1938 116.669 52.5449 116.887 52.7946C117.157 53.1301 117.662 53.2354 118.055 52.9194C118.468 52.5839 118.452 52.0885 118.162 51.7374C117.948 51.5072 117.586 51.3121 117.138 51.3121M111.632 56.7153C112.153 56.7153 112.494 56.3251 112.494 55.7985C112.494 55.2718 112.117 54.8271 111.414 54.8271C110.711 54.8271 109.849 55.4084 109.293 56.3993L109.237 56.3641L109.273 54.8622L109.201 54.8076L106.826 55.3889V55.5293L107.835 56.2003V61.5332L106.81 61.8492V62.0443H110.445V61.8336L109.348 61.5176V56.7113C109.583 56.251 110.103 55.8648 110.679 55.8102C110.786 56.3563 111.163 56.7113 111.632 56.7113M105.102 57.5579C104.995 55.9857 104.582 55.2796 103.609 55.2796C102.635 55.2796 101.881 56.251 101.793 57.6827L105.102 57.5579ZM101.793 58.0338C101.793 60.0469 102.425 61.303 104.22 61.303C104.995 61.303 105.642 61.1431 106.56 60.7374L106.651 60.9129C105.682 61.779 104.709 62.2744 103.684 62.2744C101.599 62.2744 100.177 60.8271 100.177 58.6697C100.177 56.5124 101.793 54.8895 103.72 54.8895C105.646 54.8895 106.743 56.251 106.723 58.0143H101.793V58.0338ZM168.183 57.5579C168.076 55.9857 167.663 55.2796 166.69 55.2796C165.716 55.2796 164.962 56.251 164.874 57.6827L168.183 57.5579ZM164.874 58.0338C164.874 60.0469 165.502 61.303 167.301 61.303C168.076 61.303 168.723 61.1431 169.641 60.7374L169.732 60.9129C168.763 61.779 167.79 62.2744 166.765 62.2744C164.68 62.2744 163.258 60.8271 163.258 58.6697C163.258 56.5124 164.874 54.8895 166.801 54.8895C168.727 54.8895 169.823 56.251 169.804 58.0143H164.874V58.0338ZM82.3895 60.6671C81.8493 60.9675 81.2376 61.2679 80.8444 61.2679C80.1811 61.2679 79.7481 60.792 79.7481 60.1366C79.7481 59.3056 80.5227 58.5839 82.3935 58.5644V60.6671H82.3895ZM91.2751 61.5137L88.5225 57.8934L90.7548 55.6853L91.7796 55.2952V55.0846H88.7409V55.2601L89.587 55.8063L87.589 58.2094H86.9058V51.3394L86.8343 51.3043L84.2803 51.9402V52.1002L85.3964 52.7907V61.5332C85.2693 61.5878 84.9992 61.658 84.8403 61.6736C84.2088 61.6931 83.8513 61.2328 83.8513 60.792V57.0117C83.8513 55.6151 83.2753 54.8232 81.8017 54.8232C80.328 54.8232 78.4373 55.4396 78.4373 56.5202C78.4373 56.961 78.7432 57.3316 79.2635 57.3316C79.7481 57.3316 80.0738 56.9415 80.0738 56.5202C80.0738 56.2042 79.9467 55.9038 79.5892 55.619C79.9308 55.4591 80.2923 55.3732 80.614 55.3732C81.6587 55.3732 82.4134 55.8336 82.4134 57.0859V58.1821C80.0222 58.4123 78.1871 59.0286 78.1871 60.6008C78.1871 61.5527 78.8703 62.2432 79.9308 62.2432C80.7769 62.2432 81.7103 61.6073 82.4134 60.9168L82.469 60.9519C82.5246 61.7634 82.9893 62.0638 84.1412 62.0638H87.7757V61.8336L86.9495 61.5176V58.6034H87.4699L89.5195 61.502L88.9078 61.818V62.013H92.1649V61.8375L91.2831 61.5215L91.2751 61.5137ZM76.2566 57.5579C76.1494 55.9857 75.7363 55.2796 74.7631 55.2796C73.7899 55.2796 73.0352 56.251 72.9479 57.6827L76.2566 57.5579ZM72.928 58.0338C72.928 60.0469 73.5556 61.303 75.355 61.303C76.1295 61.303 76.777 61.1431 77.6945 60.7374L77.7859 60.9129C76.8127 61.779 75.8435 62.2744 74.8187 62.2744C72.7334 62.2744 71.3113 60.8271 71.3113 58.6697C71.3113 56.5124 72.932 54.8895 74.8545 54.8895C76.777 54.8895 77.8772 56.251 77.8574 58.0143H72.928V58.0338Z" fill="black"/>
    <path d="M52.9164 58.7438L52.837 59.485H51.979V53.2432H52.9601V55.9194C53.1547 55.3693 53.5758 55.0767 54.1438 55.0767C55.0812 55.0767 55.5976 55.8335 55.5976 57.3316C55.5976 58.8296 55.0534 59.5865 54.0564 59.5865C53.5122 59.5865 53.0912 59.2744 52.9164 58.7438ZM54.545 57.3316C54.545 56.2627 54.2908 55.7984 53.7585 55.7984C53.258 55.7984 52.9522 56.2276 52.9522 56.9181V57.7373C52.9522 58.4356 53.2501 58.8648 53.7506 58.8648C54.2868 58.8648 54.549 58.4083 54.549 57.3316H54.545Z" fill="black"/>
    <path d="M56.1257 61.1742V60.3823C56.2488 60.4096 56.3441 60.4096 56.4156 60.4096C56.8645 60.4096 57.0988 60.2028 57.2299 59.7542L57.3173 59.4772L55.8794 55.182H56.94L57.6946 57.9635C57.7463 58.1976 57.782 58.3849 57.7979 58.5994H57.8138C57.8337 58.3927 57.8654 58.1937 57.9171 57.9713L58.6003 55.182H59.6092L58.2229 59.7971C57.9052 60.8465 57.353 61.2093 56.5149 61.2093C56.4117 61.2093 56.2687 61.2015 56.1217 61.1742H56.1257Z" fill="black"/>
    <path d="M21.3938 0C9.57674 0 0 9.40573 0 21.0117C0 32.6177 9.57674 42.0234 21.3938 42.0234H44.289V0H21.3938ZM21.2865 32.6879H9.17953L21.6678 5.57478L26.1603 16.3888C24.5357 19.2874 24.1186 20.8011 24.7542 23.3407C25.9299 28.0065 22.5695 31.3381 21.2825 32.6918L21.2865 32.6879ZM32.9367 32.6879H25.9776C27.332 30.4799 28.4323 27.16 27.0024 23.3329C25.9696 20.5709 26.1603 20.173 28.2973 14.8362L29.7709 11.1769L39.6178 32.6879H32.9367Z" fill="#F0140A"/>
    <path d="M129.661 0L122.984 28.6619L116.661 0H103.557L97.2491 29.3758L90.5958 0H51.979V42.0234H62.6163V25.658H77.329L79.6169 16.4669H62.6163V9.24968H81.6427L89.6624 42.0234H104.665L108.84 20.0715C109.161 18.3862 109.432 16.6931 109.654 14.9922L109.988 12.4408L110.321 14.762C110.587 16.6151 110.913 18.4604 111.294 20.2939L115.823 42.0234H130.309L138.376 9.24968H149.558V42.0234H160.259V9.24968H172.465V0H129.657H129.661Z" fill="black"/>
  </g>
  <defs>
    <clipPath id="clip0_2481_55545">
      <rect width="172.473" height="62.2978" fill="white"/>
    </clipPath>
  </defs>
</svg>