<?xml version="1.0" encoding="UTF-8"?>
<svg id="Layer_1" xmlns="http://www.w3.org/2000/svg" version="1.1" viewBox="0 0 535.8 312.1">
  <!-- Generator: Adobe Illustrator 29.7.1, SVG Export Plug-In . SVG Version: 2.1.1 Build 8)  -->
  <defs>
    <style>
      .st0 {
        fill: #19488d;
      }

      .st1 {
        fill: #e32227;
      }
    </style>
  </defs>
  <path class="st0" d="M100.1,30h8.7c8.7.7,17.3,3.1,24.6,8.1,8.7,5.7,14.9,14.9,17.5,25,3.2,12.5,1.9,26-2.7,38-1.5,4.3-3,8.5-4.5,12.7,7-1.8,13.9-5.1,18.9-10.5,5.4-5.5,8.2-13,10-20.4,12.8,0,25.6,0,38.3,0-6.6,17.5-11.5,36.1-11.1,55,.1,21.8,8.1,42.5,10.2,64,1.6,14.6,1.1,29.6-3,43.7-3.8,13.2-10.8,25.5-20.4,35.4-9.6,10-21.6,17.6-34.5,22.6-16.5,6.4-34.4,8.9-52.1,8.5-21.1-.4-42.4-5.2-60.5-16.3-15.6-9.5-28.5-23.9-35-41.1-6.5-17.1-6-36.9,1.8-53.5,6-13,16.9-23.5,29.7-29.7,15.9-7.6,34-9.6,51.3-7.8,2.4-6.3,4.8-12.6,7.3-18.9-14.6-6.3-27.9-16.6-35.5-30.8-11.7-21.3-9.1-50.1,7.7-68,8.4-9.5,20.7-15.1,33.3-16M90.5,74.6c-2.9,6.4-3.2,14.2,0,20.6,3.4,7.1,8.8,13.7,16.1,16.9,1.5-3.4,2.7-6.9,4.1-10.3,2.1-5.5,4.6-10.9,5.2-16.8.7-4.9,0-10.3-3.2-14.2-3.3-4-9.1-5.5-14-3.9-3.7,1.2-6.5,4.3-8.1,7.7M130.4,149.3c-2.9,7.9-6,15.8-8.8,23.8,8.8,4.1,17.9,8.4,24.8,15.5-4.3,11.1-8.7,22.1-13.2,33.1-6.8-6.8-14.8-12.5-23.8-16-4.9,12.9-9.6,25.9-14.4,38.8h-37.5c5.6-15,11.1-29.9,16.7-44.9-12.3-.4-24.6,5.9-31.3,16.3-2.8,4.4-4.5,9.6-3.8,14.9.8,11,6.5,21.4,15,28.4,11.6,9.6,26.9,13.6,41.7,14.7,12.2.8,24.8.1,36.4-3.8,10.5-3.4,20.3-9.7,27.1-18.5,9-11.3,12.4-26.3,11.4-40.5-1-10.9-3.6-21.6-5.6-32.3-2.3-12.1-4.2-24.4-4.2-36.8-9.8,3.7-20,6.2-30.5,7.3"/>
  <path class="st1" d="M191.7,68.9c19.3-14.7,29.1-22.9,35.3-33.7,8.8-15.3,3.5-28.2-7.7-33.3-10.4-4.7-22.8-.3-27.7,10-4.8-10.2-17.2-14.7-27.7-10-11.1,5.1-16.5,18-7.7,33.3,6.4,10.8,16.2,19,35.5,33.7"/>
  <path class="st0" d="M243,110.6v-.2c0-15.4,12-28,28.3-28s15.6,2.6,21.2,7.4l-7.5,9c-4.2-3.5-7.9-5.5-14.1-5.5s-15.5,7.6-15.5,16.8v.2c0,9.9,6.8,17.1,16.4,17.1s8.2-1.1,11.2-3.2v-7.7h-12v-10.3h23.5v23.5c-5.6,4.7-13.2,8.6-23.1,8.6-16.8,0-28.4-11.7-28.4-27.7"/>
  <path class="st0" d="M302.7,117v-.2c0-11.8,8.4-21.5,20.5-21.5s20.2,10.7,20.2,22.5-.1,2-.2,3.1h-28.8c1.2,5.3,4.9,8.1,10.1,8.1s6.8-1.2,10-4.2l6.7,5.9c-3.9,4.8-9.4,7.7-16.9,7.7-12.4,0-21.6-8.7-21.6-21.4M331.9,113.6c-.7-5.2-3.8-8.8-8.7-8.8s-8,3.5-9,8.8h17.7Z"/>
  <path class="st0" d="M352.1,96.1h11.7v5.9c2.7-3.5,6.2-6.6,12.1-6.6,8.9,0,14.1,5.9,14.1,15.4v26.8h-11.7v-23.1c0-5.6-2.6-8.4-7.1-8.4s-7.3,2.9-7.3,8.4v23.1h-11.7v-41.5h-.1Z"/>
  <path class="st0" d="M398.2,117v-.2c0-11.8,8.4-21.5,20.5-21.5s20.2,10.7,20.2,22.5-.1,2-.2,3.1h-28.8c1.2,5.3,4.9,8.1,10.1,8.1s6.8-1.2,10-4.2l6.7,5.9c-3.9,4.8-9.4,7.7-16.9,7.7-12.4,0-21.6-8.7-21.6-21.4M427.4,113.6c-.7-5.2-3.8-8.8-8.7-8.8s-8,3.5-9,8.8h17.7Z"/>
  <path class="st0" d="M447.5,96.1h11.7v8.3c2.4-5.7,6.3-9.4,13.2-9.1v12.3h-.6c-7.8,0-12.6,4.7-12.6,14.6v15.3h-11.7v-41.4Z"/>
  <path class="st0" d="M475.4,125.6v-.2c0-9,6.9-13.2,16.7-13.2s7.2.7,10.1,1.7v-.7c0-4.9-3-7.6-8.9-7.6s-7.6.8-11.4,2.2l-2.9-9c4.6-2,9-3.3,16.1-3.3s11,1.7,14,4.6c3.1,3.1,4.5,7.6,4.5,13.2v24h-11.4v-4.5c-2.9,3.2-6.8,5.2-12.5,5.2-7.9.3-14.3-4.2-14.3-12.4M502.4,122.9v-2.1c-2-.9-4.6-1.5-7.5-1.5-5,0-8.1,2-8.1,5.7v.2c0,3.2,2.6,5,6.4,5,5.5,0,9.2-3,9.2-7.3"/>
  <rect class="st0" x="524.1" y="81.1" width="11.7" height="56.4"/>
  <polygon class="st0" points="245.4 158 258.3 158 272.5 180.8 286.7 158 299.5 158 299.5 212 287.7 212 287.7 176.7 272.5 199.8 272.2 199.8 257.1 177 257.1 212 245.4 212 245.4 158"/>
  <path class="st0" d="M311.5,155.6h12.4v10.4h-12.4v-10.4ZM311.8,170.6h11.7v41.4h-11.7v-41.4Z"/>
  <rect class="st0" x="335.1" y="155.6" width="11.7" height="56.4"/>
  <rect class="st0" x="358.4" y="155.6" width="11.7" height="56.4"/>
  <path class="st0" d="M377.9,206.5l5-7.7c4.5,3.2,9.2,4.9,13.1,4.9s4.9-1.2,4.9-3.1v-.2c0-2.6-4-3.4-8.6-4.8-5.8-1.7-12.4-4.4-12.4-12.4v-.2c0-8.4,6.8-13.1,15.1-13.1s11,1.8,15.4,4.8l-4.5,8.1c-4.1-2.4-8.2-3.9-11.2-3.9s-4.3,1.2-4.3,2.9v.2c0,2.3,3.9,3.4,8.4,4.9,5.8,1.9,12.5,4.7,12.5,12.3v.2c0,9.2-6.9,13.4-15.8,13.4-5.6,0-12.1-1.9-17.6-6.3"/>
</svg>