<?xml version="1.0" encoding="UTF-8"?>
<svg id="Layer_1" xmlns="http://www.w3.org/2000/svg" version="1.1" viewBox="0 0 338.5 43.9">
  <!-- Generator: Adobe Illustrator 29.7.1, SVG Export Plug-In . SVG Version: 2.1.1 Build 8)  -->
  <defs>
    <style>
      .st0 {
        fill-rule: evenodd;
      }
    </style>
  </defs>
  <path class="st0" d="M39,3.7s1.2,0,1.8,0c.8,0,1.3,0,1.9.2,0,0-.8,11.2-1.1,16.1-.3,5.1-1,13.5-1.5,19.9,0,0-1.1.2-2.8.2-1.6,0-2.4,0-2.6,0-.8-2.8-1.6-6.7-2.7-8.3-.9-1.4-2.2-1.5-2.9-1.6-1.2,0-2.2-.2-2.6-.2s-1.4,0-2.6.2c-.8,0-2.1.2-2.9,1.6-1.1,1.7-1.9,5.6-2.7,8.3,0,0-.8,0-2.6,0-1.7,0-2.8-.2-2.8-.2-.5-6.4-1.2-14.9-1.5-19.9-.3-4.9-1.1-16.1-1.1-16.1.6,0,1.2,0,1.9-.2.5,0,1.8,0,1.8,0,1.2,5.5,1.7,8,2.7,12,1,3.9,1.7,7.4,3,9.1s3,2.2,4.2,2.3c.6,0,1.1,0,2.4,0s1.8,0,2.4,0c1.2,0,2.9-.5,4.2-2.3,1.3-1.7,2.1-5.3,3-9.1,1.4-4,1.9-6.6,3.1-12h0ZM26.7,1.7c-2.2,0-5.7,0-8.1.2-2.8,0-5.7.4-8,.9-4.8.9-6.9,3.1-7.6,7.6-.4,3-.4,8.5-.2,12,.4,5.6,1,9.1,1.6,11.7.6,2.2,1.4,3.7,2.6,4.8,1.9,1.7,4.6,2.2,6.1,2.4,3.4.5,9,.6,13.5.6s10.2-.2,13.5-.6c1.6-.2,4.2-.6,6.1-2.4,1.2-1.1,1.9-2.5,2.6-4.8.8-2.5,1.3-5.8,1.6-11.7.2-3.5.2-9-.2-12-.5-4.5-2.8-6.7-7.6-7.6-2.3-.4-5.3-.6-8-.9-2.1-.1-5.9-.2-7.9-.2h0ZM27,0c1.7,0,6.3,0,8.2.2,2.4,0,6.2.4,8.2.8,4.2.8,9,2.3,9.7,9.4.2,1.9.2,4.5.2,7.2,0,4.5-.4,7.6-.6,9.7,0,1.5-.8,5.7-1.5,8.1-1.1,3.1-2.1,4.1-3.2,5-2.1,1.7-5.5,2.3-6.2,2.4-3.9.6-11.7.9-15.1.9s-11.3,0-15.2-.9c-.8,0-4.2-.6-6.2-2.4-1.2-1-2.2-1.8-3.2-5-.8-2.3-1.4-6.6-1.5-8.1-.2-2.2-.6-5.2-.6-9.7s0-5.3.2-7.2C1,3.3,5.7,1.8,9.9,1c2.2-.3,5.8-.6,8.2-.8,2.3-.1,7.3-.2,8.9-.2h0Z"/>
  <path class="st0" d="M306.2,13.1l-5.7,9.2h11.9l-6.2-9.2ZM261.4,12.5h-10.2v18.5h10.2c5.9,0,8-2.8,8-9.2s-2-9.3-8-9.3ZM152.2,11.5c-7.6,0-10.8,3.2-10.8,10.3s3.2,10.3,10.8,10.3,10.8-3.2,10.8-10.3-3.3-10.3-10.8-10.3ZM199,6.8c1.7,0,2.4.3,3.1,1.3l16.1,21v-14.9c0-1-.2-2.5-2.1-2.7l-4.1-.4v-4.3h19.3v4.1l-4.1.4c-1.8.2-2.1,1.7-2.1,2.7v22.8h-14.8c-1.7,0-2.4-.3-3.1-1.3l-16.1-21v15c0,1,.2,2.5,2.1,2.7l4.1.4v4.2h-19.3v-4.1l4.1-.4c1.8-.2,2.1-1.7,2.1-2.7v-15.5c0-1-.2-2.5-2.1-2.7l-4.1-.4v-4.2h21ZM95.3,6.8v4.1l-4.1.4c-1.8.2-2.1,1.7-2.1,2.7v4.8h18.7v-4.8c0-1-.2-2.5-2.1-2.7l-4.1-.4v-4.1h24.3v4.1l-4.1.4c-1.8.2-2.1,1.7-2.1,2.7v15.7c0,1,.2,2.5,2.1,2.7l4.1.4v4.1h-24.3v-4.1l4.1-.4c1.8-.2,2.1-1.7,2.1-2.7v-4.8h-18.7v4.8c0,1,.2,2.5,2.1,2.7l4.1.4v4.1h-24.3v-4.1l4.1-.4c1.8-.2,2.1-1.7,2.1-2.7v-15.6c0-1-.2-2.5-2.1-2.7l-4.1-.4v-4.2h24.3ZM314.2,6.8c1.5,0,2.3.4,3.2,2.1l14.1,21.2c.6.9,1.2,2.2,3.1,2.4l3.9.4v4h-26.3v-4.1l3.5-.3c1.3,0,2.9-.9,1.6-2.7l-1.4-2.1h-18.6l-1.5,2.5c-.8,1.2.1,2.2,1.5,2.3l3.4.3v4.1h-19.3v-4.1l4.1-.4c1.2,0,1.7-1,2.2-1.6l10.3-16.8c.9-1.4-.2-2.5-1-2.6l-5.5-.6v-4h22.8-.1ZM263.7,6.8c10.8,0,19.8,4.5,19.8,15s-8.9,15-19.8,15h-30.3v-4l4.1-.4c1.8-.2,2.1-1.7,2.1-2.7V13.7c0-1.7-.9-2.3-2.2-2.5l-3.6-.3v-4.1h29.9ZM152.2,5.7c19.7,0,24.9,8.5,24.9,16.1s-5.2,16.1-24.9,16.1-24.9-8.5-24.9-16.1,5-16.1,24.9-16.1Z"/>
</svg>