<?xml version="1.0" encoding="UTF-8"?>
<svg id="Layer_1" xmlns="http://www.w3.org/2000/svg" version="1.1" viewBox="0 0 2279.4 810.7">
  <!-- Generator: Adobe Illustrator 29.7.1, SVG Export Plug-In . SVG Version: 2.1.1 Build 8)  -->
  <defs>
    <style>
      .st0 {
        fill-rule: evenodd;
      }
    </style>
  </defs>
  <path class="st0" d="M0,0v810.7h2279.4V0H0ZM2037.9,625.4c-283.1,117.2-590.8,152.1-895,152.1s-615.3-32.6-896.8-152.1c-83.8-35.4-216-115.2-216-220.1s132.5-184.7,216-220.1C527.6,65.7,839.5,33.1,1142.9,33.1s612,34.9,895,152.1c90.4,37.5,211.4,108.5,211.4,220.1s-120.8,182.7-211.4,220.1Z"/>
  <g>
    <path d="M1463.9,444.3h0Z"/>
    <path d="M1092.4,534.5l-101.9-161,73.9-107.3c5.7-8.5,13.4-15.4,22.4-20.1h-210.4c1.5,3.3,3.3,6.9,3.3,10.4s-1.5,6.9-3.3,9.7l-61.9,92.7v-92.7c0-8.7,5.3-14.8,11.5-20.1h-213.2c5.9,5.6,11.5,11.5,11.5,20.1v268.3c0,8.4-5.6,14.5-11.5,19.9h213.2c-6.1-5.3-11.5-11.5-11.5-19.9v-93.2h0l54.8,93.3c2,3.3,4.1,7.4,4.1,11.5s-2.3,5.8-4.1,8.4h245.1c-9.2-4.8-16.5-11.2-21.9-19.9h0Z"/>
    <path d="M536.8,246.1h-218.3c5.9,5.4,11.2,11.2,11.2,19.9v268.5c0,8.4-5.3,14.5-11.2,19.9h218.3c-6.1-5.3-11.5-11.5-11.5-19.9v-268.5c0-8.7,5.4-14.5,11.5-19.9Z"/>
    <path d="M2041.7,554.3c-4.6-4.1-7.7-8.1-9.7-13.8l-106-259.1c-2.5-6.1-4.6-12.7-4.6-19.6s2.3-10.7,4.6-15.8h-291.2c2.3,4.8,4.3,9.9,4.3,15.5s-2,13.5-4.3,19.9l-96.1,259.1c-2,5.4-4.9,9.7-8.9,13.8h180.1c-1.8-3.3-3.1-6.6-3.1-10.5s.2-3.4.8-5.1l15.6-46.1h78.2l16.8,43.6c.8,2,1,4.1,1,6.4,0,4.1-1,7.9-2.6,11.7h225.1ZM1743.4,430.5l16.8-49.2,18.1,49.2h-34.9Z"/>
    <path d="M1338.8,455v-17.3h105.7c7.1,0,13.5,2.8,19.4,6.6v-95.8c-5.9,4.1-12.2,6.6-19.4,6.6h-105.7v-20.1h139.6c6.9,0,13.3,2.8,19.1,6.6v-95.5h-353.4c6.1,5.1,11.7,11.5,11.7,19.9v268.8c0,8.2-5.6,14.5-11.7,19.6h353.4v-105.7c-5.9,3.6-12.2,6.4-19.1,6.4h-139.6Z"/>
  </g>
</svg>