<?xml version="1.0" encoding="UTF-8"?>
<svg id="Layer_1" xmlns="http://www.w3.org/2000/svg" version="1.1" viewBox="0 0 141 25.7">
  <!-- Generator: Adobe Illustrator 29.7.1, SVG Export Plug-In . SVG Version: 2.1.1 Build 8)  -->
  <defs>
    <style>
      .st0 {
        fill-rule: evenodd;
      }
    </style>
  </defs>
  <path class="st0" d="M25.4,2.1l-.8,1.1c5.2,2,7.2,5.7,7.2,9.7s-.6,3.8-1.7,3.8h-13.5c-1.8,0-2.4-.6-1.6-2.2,1.5-2.8,5.9-8.1,8.6-11.4.4-.5.7-1.2-.7-1.6-1.5-.4-3.8-.5-5.8-.5-10,0-17.1,5.3-17.1,12.1s6.1,12.1,17.2,12.1,10.9-1.3,14.3-5h-2.9c-3.3,2.9-7.6,3.5-11.4,3.5-8.9,0-14.6-4.5-14.6-10.6S9.1,2.3,17.2,2.3s1.3.2.3,1.4c-2.1,2.5-5.8,7.4-7.5,10.2-1.9,3.1,0,5.5,4.2,5.5h16.9c1,0,1.7-.6,2.2-1.6.5-.8,1.2-2.5,1.2-4.8,0-4.6-3.6-8.9-9.1-10.9ZM135.9,12.2h-11.5c.4-1.4,1.5-2.4,3.7-2.4h11v-2.4h-11.7c-6.7,0-8.2,4.5-8.2,7.1h14.2c1.9,0,1.9,2.5,0,2.5h-15.7V7.4h-4.7v9.6h-7.9c-2.1,0-3-1-3-2.5v-7.2h-7.6l-6.8,4.1-5.8-4.1h-16.8c-4.9,0-8.3,2.7-8.7,6.1h3.2c-1.3.8-2.2,2.1-2.8,3.5h-9.9c-1.9,0-2.7-.9-2.7-2.7v-7h-4.8v5.9c0,3.8,2.1,6.1,7,6.1h33.1l6.8-4.1,5.8,4.1h7l-9.1-6.4,7.4-4.4v6.8c0,2.1,2.8,4.1,5.4,4.1h33.1c5.8,0,5.7-7.3,0-7.3v.2ZM78.6,17.1h-16.1c.2-1.3.9-2.6,3.1-2.6h10v-2.3h-13.3c.2-1,1.3-2.3,3.7-2.3h10.5v-1.3l7.6,5.3-5.5,3.3h0Z"/>
</svg>