<?xml version="1.0" encoding="UTF-8"?>
<svg id="a" xmlns="http://www.w3.org/2000/svg" version="1.1" viewBox="0 0 500 234.9">
  <!-- Generator: Adobe Illustrator 29.7.1, SVG Export Plug-In . SVG Version: 2.1.1 Build 8)  -->
  <defs>
    <style>
      .st0 {
        fill-rule: evenodd;
      }

      .st0, .st1 {
        fill: #fcaf17;
      }

      .st2 {
        fill: #53565a;
      }
    </style>
  </defs>
  <g>
    <path class="st0" d="M66.8,61.7c.5.8,1.2,1.4,2.1,1.9,1.4-2.3,3.6-4.1,6.1-5,3.4-1.1,6.8-1.9,10.3-2.6,4.7-1.8,3.9-5,3.8-9.9-.5-4.4.8-8.8,3.6-12.3,2.9-2.5,4.5-5.3,5.1-9.8.3-3.3-.6-4.3-1.7-7.5,0,0-2.6.8-4.4,2.3-2.3,1.7-3.4,4.5-2.7,7.3.1,1.9,1.2,3.7,2.9,4.6-.4,1.1-1.2,1.9-2.3,2.3-2.1.7-4.3,1.2-6.5,1.6-3.9,1-6.5,3.3-6.1,6.8.6,3,2.4,5.6,5,7.1-3.6.7-7.1,1.9-10.3,3.6-2.8,1.9-5,4.7-6.1,7.9"/>
    <path class="st1" d="M130.9,44.1c-.6-4.8,1.7-8.7-3.9-11.8,3.5-1.2,5.3-5.7,3.1-8.9-6.1,9.4-11.9-15.1-32.2-14.2-9.8-.9-5.6-12.6-15.9-8.1,1.4.7,2.5,1.8,3.3,3.1.6,1.3.8,3.2,0,2.6-3.1-3.3-10.9.4-9.1,1.8,1.2,0,3.7,2.2,2.6,2-3.4.3-7.3,2.8-7.6,6.5l2.1,1.5c-4.9.4-12.7,3.3-9.9,9.6h3.6l.7,1.5c-6.2-.2-11.3,3.9-15.9,7.7,0,.7,2.4,2.7,2.4,2.7-.2,2.7,1.9,10,4.4,9.5l2.2-.6c6,2,4,1.9,3.1-3.1.2-3.1,8.8-5.6,10.4-.4-4,1.2-7.8,3.7-9.9,7.4,0,0-1.7,2.5-7.6,1.7-7.3-1-7.4-9-7-13.2s3.7-13.2-2-17.3c-4.1-2.8-9.7-1.6-12.3,2.5-1.2,1.8,2.5,0,5.5,1.5,7.9,4.8-4.1,26.2,12.6,30.6,3.8.9,7.7.7,11.4-.7,1.9-5.9,7.8-9.5,13.6-10.4-2.4-1.7-4.6-4.1-5-7.1-1.4-1.2-3.4-1.3-5.2-1l-.9-.9c2.2-.9,4.9-1.6,7.1-.2.6-7.7,10.4-5.1,15.2-7.7-2.9-1.6-5.6-4.6-4.5-8.1-1-.9-8.1,1.4-9.5,3.4-2.1-3.9.2-9.5,5-9.4l.6.9c-2.8.1-4.9,3-4.2,5.7,2.5-2.4,6.1-3.6,9.4-2.6,3.1-3.5,8.5-3.9,11-8.1,10.2,23.4-8.5,15.1-5.6,37,1.2,13.4-17.5,5.4-21.9,15.7-24.4,0-14.9,26.8-33.8,28.3,2.2,5.4,9,4,13.3,2.2-1.3,2.7-1.4,6.6,1.2,8.6,1.5-5.5,8.7-5.8,10.1-11.2,3,1.8,10,.4,10.3-1.3-1.2-6.4.7-13.5,5.8-17.7l1.2,1.1c-12.1,16.5,9.9,30.9-3.9,41.8,14.7,1.2,14.4-11.5,10.3-18.2h2c2.2,3.6,3.3,7.8,2.5,12,3.5,2.6,5.8,7.1,4.8,11.6,5.2-3.5,5.2-10.7,4.5-16.3.5,1.7,4.9,10.9,8.5,12.5,0-1.9-.1-9.4.6-12.3,1.7,3.8,3.8,8.1,8.1,9.4-.6-10.6-1.4-22.5,5.8-31.1-1.5-2.6-2.2-5.5-2.1-8.5-5.5,4.4-6.4,11.9-6.3,18.5-6.5-1.8-10.6-8.9-10.3-15.5-3.9.9-8.4,11.9-7.9,17.4-4.3-7.1-6.5-16.1-2.9-24-5.5.2-11.3-.8-15.7-4.4,8.6-.7,19.9-3.1,21.8-13,2.9.5,5.6,1.9,7.7,4.1,2.3-4.7,0-16.7-7.6-20.3v-1.5c2.8.9,5.7,2.5,7.1,5.3,2.4-4.4.8-9.9-2.4-13.6.3-.5.4-1,.5-1.5,5.5,3.8,7,12.1,3.2,17.6,2.6,6.3,2,13.6-.5,19.8.5-2.7-5.8-7.2-6.5-6.4-3,5.9-9.5,9.3-15.9,10.1.1,1.4,11.9,1.9,15.2-.2-5.6,4.1-7.2,11.7-5.4,18.1,1.7-6.7,6.9-12,13.3-14.4-2.8,4.9-.3,16.5,3.3,17.1.4-9.8,4.6-11.1,8.8-17.6,1.2-2.2,2.6-4.3,4.3-6.1l.5,1.7c-3.5,5.3-4,13.6,2,17.3,0-5.2-1.1-11.2,2.3-15.5,4.8,9.2,3.9-6.7,2-9.5-.9-2.3-1-4.9-.4-7.3-5.9,0-10.3-6.5-8.7-12.1.3,2.1,1.1,4,2.3,5.7,2.1,4.6,11.8,6.5,12.1,0,0,0-3.1,1.4-3.9-1.6h0ZM77.2,31.1h-4.5c2.1-1.4-1-4-2.5-2,.9-6,6.7.9,6.9,2Z"/>
    <path class="st1" d="M168.5,152.2c18-4.7,21-31.2,3.9-39.2-4.1-2.5-6.9-2.3-9.5-8.8-3.5-8.8-8.7-8.8-8.7-8.8.8,4.1-3,6.9-5.9,9.1,1.8,1.2,3.6,2.8,3.8,5.1-8.1.6-17.5,9.6-23.8-1.1-3.8-7.5.7-10.2,2.5-10.6,6-.5,2.7,7,5.2,10.2,1.8,4,7.1,3.6,9.1,0-6.5.3-.3-6.1-.7-9.3-2.5-.1-5.3-.8-6.8-3.1l1.6-1.3c4.2,5.1,13.8,1.1,11.6-5.7-2.2,3.7-5.2-.8-8.4,0,24.6-13.9,18.3,29.4,33.5,18-6.9-1.5-3.1-9.6-4.9-14.1,2.5,1,6.3-3,4.4-6.3-6.8,4.8-10.1-9.6-18.1-7.3,2-.8,1.4-4.2,4-3.9,2.7,1.7,6.7,4.7,8,.2-1.5-.7-2.6-2.1-3.1-3.8-.6-5.7-9.5-6-10.9-.6l-1.7-1c.2-2.7,2.7-4.7,5.3-4.9,3.6-10.9-17.8-16.1-7.8-26.2-15,.2-13.2,17.6-4.7,25.3l-1.1,1.3c-1.4-.9-3.3-3.2-4.1-4.2-12,4,8.2,10.5,1.7,16.5-.8-2.8-4.5-3.9-3.9-7.2-4.8-1.3-8,5.3-4.9,8.8,1.4,2,1.3,4.3-3.1,7.2-19.7,8.2-13.1,39.9,9.2,34.7.2,1.9-1.5,3.7-2.7,4.9.3,2.2,4.9.4,5.2,3.9.7,2.5,1.5,6.7,6.1,7.3,4.6.6,4-1.1,4-1.1-6.3-2.3-.4-5.6,1.8-8.2-4.3-17.8,23.8-10.4,22.4,3.9-1.9,20.6-27,14.9-34,3.9-4.4-10.7-19.3-11.8-26.4-20.2l.6,4.7c-3.5-.8-6.6-2.7-8.9-5.5,0,2,.9,8.5,1,9.2-4.1-1.1-7.4-3.9-9.5-7.6,0,5.6-5,9.5-9.7,11.5,1.8-4.7.6-10.1-3-13.6-1.4,5-16.8,7.4-16,3.1,1.4-1.2,2.4-2.7,2.8-4.5-3.4,2.5-7.6,3.3-11.7,3.9,1.6,2.8,3.4,12.2,5.6,11.1-2.6,2.6-12.8,1.3-13.1-.7-2,4.3,2.8,6.9,3.7,10.7,0,2.3-1.1,4.5-3.1,5.7-6.1,5.7,1.8,12.1,6.3,10.1-5.5-3.2,2.3-5.4,3-8.7l1.1,2.9c3.2-.6,3.4-6.5,1.8-9.3,13.4,6.2,34.5-5,39.4,13.5,7.7-4.9,2.9,6.6,9.8,4,2.6-9.5-6.3-18.5-15.8-16.6v-1.9c39.5.8,2.8,33,19.2,44.3-3.1,6.5,6.8,10.5,1.8,16.3,2.1.3,4.3-.6,5.3-2.5-.8.9,3.3,4.5,5.2,3.6-1.4-1.4,0-6.1,1.1-6.1l2.8,1.2c-.5-1.8-1.6-4.3-.1-5.9,11.4-.5,9,15.1,7.1,22.4-1.6-.7-9.9-3.9-11.5.7-4.3-1-7.1,5.3-6.3,7.4,1.2-1,2.8-1.7,4.4-1,3.4-1.6.3.9.4,2.2-6.1.5-4.1,8.1-1.7,9.9-.6-1.9,2.5-5.4,3.6-5,0,0,2-2.2,1.4-.5-.4.9-.4,1.9,0,2.8-2.1,3.3,2.5,7.6,4.7,7.2-3.1-6.2,4.1-2.8,4.6-7.1-.1.9,1.6,2,1.9,1.7-2,3,1.6,5.9,4.5,5.8-1.9-1.1-.4-5.1,1-4.6,2.4,1.3,5.7-6.6,4.1-9.4,2.2-1.4,3.7-3.4,4.7-5.8,2.6,2.4,7.6,2.2,8.1-.8-3.4-3.2-8.8-4.3-6.8-10.3,1.7,2.1,5.6,3.8,7.2.6-1.7-3.6-6.9-6.8-6-10.9,1.2,2.7,6,4.3,7.4,2.1-3.1-2.5-.2-7.6-4.1-9.4-2.5-.9-4.2-3.4-4-6.1-.7-16.2-28.1-1.8-16.7-30.7,7.5,3.5,16.1,4.7,24.1,2.5h0ZM148.4,186.1c3.5,2.5,5.2,11.6-.2,12.5,1.5-6.3-2.4-14.9-9.8-14.1l1.1-1.8c3.4,0,6.2,1.1,8.9,3.4h0Z"/>
    <path class="st1" d="M111.2,158.1c-1.1-1.1-1.8-2.6-2-4.2-1.4.3-3.2,1.1-4.5,1.7-6.4-17.9-14.4-10.9-25.9-2.6-5.5,3.5-10.8,9.4-10.7,16.2-1.3.6-3-.2-3.4-1.7-3.3,3.4,0,8.8,4.2,9.3-.6,1.4-.8,1.4-2,1.7,2.4,1.9,5.4-.3,6.5-2.6,2.1,5.6,3.8,13.5-2.2,17.3-5.1,3.3-13.7-2.1-16.6,4.6-2.4-.3-4.8,6.6-3.1,7.8-.2-1.1,2.7-1.9,4.1-2.4,0,0,2.5-2.5,2-1-.3,1.2-.3,2.5,0,3.8-3.1,1.5-3.4,6.5-.7,8.5.7-2.3,3-3.3,5.2-3.9,0,0,1.9-3.8,1.5-2.2-.2,1.1,0,2.2.6,3.1-1.6,3.5.8,7.7,4.5,8.5-.3-1.9,0-3.9.9-5.5,2.6,0,4.5-2.2,5.3-4.5l2.5.3c-1.4,4,1.2,8.6,5.6,8.5-.8-1.5-1.2-3.2-.4-4.7,5.4-1.9,2.4-8.7.5-12.3l1.5-1c1.5,3.8,4.3,4.4,7,3.2-.3-2.3-2.8-3.5-2.6-5.8l1.5-1.9c-.2,3.6,4.2,5.6,6.9,3.4-2.3-1.4-2.7-4.1-2.2-6.6,1.3,3,8.4,3.1,8.1,1-3.1-.4-2.2-5.6-5.7-6.8,4.4-7.6-7.7-10.6-5.6-16.6,7.3,1,14.6-.6,21.7-2.3.3-3.1,2.1-6.7,3.1-9.6-1.4.3-4.1.1-5.3-.6h0ZM83.1,190c-.9,2.3-3.1,3.8-5.6,3.9,5-5.1,3.7-13.3,1.2-19.4l2-1.1c2.3,5.1,4,11,2.4,16.6h0Z"/>
    <path class="st0" d="M8.8,57c-.8,8,12.2,9.9,14,2.3,5,.4-3.2,10.8,2.7,13.5,0-1.7,2.4-4.7,3.3-4.7-1.1,4.6,2.3,8.5,1.7,13.1,4.1,0,1.9-7.7,6.2-8.4-2.8,6,2.5,11.2,1.7,17,2.1.5,4.1-6.9,2.5-9.6,1.7,2.1,2.8,4.7,2.3,7.4,0,0,2.4-1.7,4.6-9.5.5-1.8,1.1-3.5,1.9-5.1l-22.4-26.2-.5-7.4c5.3,9.6,16.6,21.8,24.1,31.3,1-1.2,2.2-2.3,3.4-3.3-2.6-5.2-28-28.5-22.9-41.4.3-2.2-.9-4.4-2.9-5.2.7-4.1-7.4-6.9-7.9-4.2,1.9,1.2,2.8,3.6,2,5.7-4.3-4.8-14.7-2.2-13.4,5.1,1.8-2.9,8.9-3,9.3.4-1.7-1.5-11.7,1-9.2,7.4-3.1,2.4-1.8,8.7,1.8,9,1.5.1-1.1-3.9,3.4-5.1,5.2-2.4,3.7,22.5-2.9,11.6-.2-1-.2-2,0-2.9-4.8-.7-6.4,7.1-2.8,9.3"/>
    <path class="st0" d="M52.2,130.7c-1.2-2.6-.5-5.8,1.7-7.7,2.4,2.5,5.8,4.4,9.4,3.5-2.1-2.5-3-11.2-5-12.4,13.8-1.5,21.3-4.7,13.1-19.7-2.6,1.8-6.1,2-9.1,1.5-2.2,5.1-11.2,5.7-9.7,12.7-2-.5-3.8-1.8-4.9-3.6l-21.3,12-6.8-3.5c11.5.4,13.7-4.3,27.2-10.6,0-1.2-.2-2.5,0-3.8-1.8,1-3.9,1-5.9.8-21.5,17.1-22.6.2-33.3,6.4-4.7-1.5-9.5,4.1-6.9,8.4.4-1.6,3.7-3.8,5.3-1.4,1.8,4.8-10.9,7.2-2.6,14.6.5-1.8,1.2-3.7,2.8-4.7-.8,1.6,0,6.3,1.3,6.6-3,3.8.3,9.7,5.1,9.2.6-.6-2.5-3.9-.8-4.8,5.4.9,5.6-11.2,12-9.8v2.7c-1.5-.6-5,5.4-2,7.2,0,2.2-2.3,3.2-4.2,3.5,2.1,3.3,7.9,3,9.3-.7,6.6-1.5,5.2-9.1,6.4-11.3,2.3,0,7.4,6.9,11,3.1-1.7-1.9-3.4-4.2-3.2-6.9,10.8-5.8,1.8,9.9,10.6,8.9"/>
  </g>
  <g id="b">
    <g id="c">
      <path class="st2" d="M382.2,113.4c0,9.7-1.2,15.3-14.3,15.3h-10.8c-12.9,0-13.6-5.5-13.6-15.3v-7.8c0-9.7.8-15.4,13.7-15.4h10.8c14,0,14,5.7,14,15.3l.2,7.8h0ZM402.9,109.5c0-26.1-6.2-32.2-40-32.2s-40.1,6.1-40.1,32.2,6.8,32.2,40.1,32.2,40-4.7,40-32.2"/>
      <polygon class="st2" points="215.3 78.8 215.3 140.2 275.4 140.2 275.4 127.2 235.6 127.2 235.6 78.8 215.3 78.8"/>
      <rect class="st2" x="288.9" y="78.8" width="20.3" height="61.5"/>
      <path class="st2" d="M500,78.8h-20.1v45.3l-26.6-39.2c-3.7-4.6-9.2-7.4-15.1-7.6h-22.9v63.1h19.9v-48c5.3,9.6,19.5,30.8,24.3,37.4,4.5,7,12.1,11.5,20.5,12.1h20.1v-63.1h0Z"/>
    </g>
  </g>
</svg>