<?xml version="1.0" encoding="UTF-8"?>
<svg id="Layer_2" data-name="Layer 2" xmlns="http://www.w3.org/2000/svg" viewBox="0 0 363.22 350.03">
  <g id="Layer_1-2" data-name="Layer 1">
    <g>
      <path d="M181.61,128.52c18.11-11.05,39.38-17.42,62.15-17.42,21.04,0,40.81,5.45,57.98,15,.12-2.2.19-4.41.19-6.63C301.92,53.49,248.44,0,182.46,0S62.99,53.49,62.99,119.47c0,1.92.05,3.83.14,5.73,16.78-8.99,35.96-14.1,56.33-14.1,22.76,0,44.04,6.37,62.15,17.42Z"/>
      <path d="M124.29,230.57c0-2.23.07-4.44.19-6.63-35.1-19.52-59.34-56.22-61.35-98.74C25.56,145.33,0,184.96,0,230.57c0,65.98,53.49,119.47,119.47,119.47,22.76,0,44.04-6.37,62.15-17.42-34.37-20.98-57.32-58.83-57.32-102.05Z"/>
      <path d="M301.74,126.1c-2.34,42.8-27.21,79.59-62.95,98.74.09,1.9.14,3.81.14,5.73,0,43.21-22.95,81.07-57.32,102.05,18.11,11.05,39.38,17.42,62.15,17.42,65.98,0,119.47-53.49,119.47-119.47,0-44.94-24.82-84.07-61.49-104.47Z"/>
    </g>
  </g>
</svg>