<?xml version="1.0" encoding="UTF-8"?>
<svg id="Layer_1" xmlns="http://www.w3.org/2000/svg" version="1.1" viewBox="0 0 206 40">
  <!-- Generator: Adobe Illustrator 29.7.1, SVG Export Plug-In . SVG Version: 2.1.1 Build 8)  -->
  <defs>
    <style>
      .st0 {
        fill-rule: evenodd;
      }
    </style>
  </defs>
  <path class="st0" d="M23.2,7C18.9,2.6,13,0,6.8,0H0l.5,1.3h0c.1.4.2.7.4,1,0,0,0,0,0,0,0,.2.2.3.2.5,0,.2.2.4.3.6,0,0,0,.2.1.2.1.3.3.5.4.8,0,0,0,0,0,0,.9,1.4,2,2.5,3.1,3.3,0,0,0,0,0,0,4.8,3.4,11.5,2.7,19.6,10.2h.1c.5.6,1,.7,1.4.7,0,0,0,0,.1,0,0,0,0,0,.1,0,0,0,0,0,0,0,.1,0,.3-.2.3-.3,0,0,0,0,0,0,0,0,0,0,0,0,0-.2.1-.4,0-.6,0,0,0,0,0,0,0,0,0,0,0-.1,0,0,0,0,0,0-.4-.8-.4-1.2-.4-1.3,2.2.6,4.3,1.7,6,3.2v.3c-1,1.7-9.4,1-9.5,4.5,0,1,.6,1.8,1.4,2.1l1.7.7c5.4,2.2,10.3,5.5,14.2,9.7,0,0,0,.2,0,.3,0,0-.1,0-.1,0,0,0-.1,0-.1,0-.7-.6-1.4-1.1-2.2-1.6,0,0,0,0,0,0-.7-.5-1.4-.9-2.1-1.4-.2-.1-.5-.3-.7-.4-.5-.3-1-.6-1.5-.8-.3-.2-.6-.3-.9-.5-.4-.2-.9-.4-1.3-.6-.3-.2-.7-.3-1.1-.4-.4-.2-.9-.4-1.3-.5-.4-.1-.7-.3-1.1-.4-.4-.1-.8-.3-1.3-.4-.4-.1-.8-.2-1.2-.3-.4-.1-.8-.2-1.2-.3-.4,0-.8-.2-1.3-.3-.6-.1-1.2-.3-1.9-.4-.5,0-.9-.5-.9-1,0,0,0,0,0,0,0,0,0,0,0,.1C19,15.7,7.2,14.9,2.8,7.3h0s0,0,0,0l12.4,32.7h40.7L23.2,7Z"/>
  <path class="st0" d="M47.2,22.8c0-5.5,5.5-9.7,13.8-9.7s13.8,4.2,13.8,9.5-1,4.3-3,5.9h4.9l-1.2,2c-.7,1.3-1.6,2-3.6,2h-11.1c-8.3,0-13.5-4.2-13.5-9.7h0ZM60.9,28.1c4.5,0,8.3-2.2,8.3-5.3s-3.8-5.3-8.3-5.3-8.3,2.2-8.3,5.3,3.8,5.3,8.3,5.3h0ZM84,29l-2.1,3.5h-5.4l9-15.6c.7-1.2,1.7-2.2,3.8-2.4h2c2.1.2,3.1,1.2,3.8,2.4l9,15.6h-5.5l-2.1-3.5h-12.5ZM94.6,25.5l-4-7.3c-.1-.2-.2-.2-.3-.2s-.2,0-.3.2l-4,7.3h8.6ZM130,32.5h-5l-14-11.8v11.8h-5V14.5h3.1c1.5.2,2.3.6,3.2,1.4l12.7,10.6v-12h5v18ZM147,32.5h-5v-14h-10v-4h25v4h-10M160,29l-2,3.5h-5.4l9-15.6c.7-1.2,1.7-2.2,3.8-2.4h2c2.1.2,3.1,1.2,3.8,2.4l9,15.6h-5.5l-2.2-3.5h-12.5ZM170.7,25.5l-4-7.3c-.1-.2-.2-.2-.3-.2s-.2,0-.3.2l-4,7.3h8.6,0ZM181.5,31.1l1.2-3.9c3.5,1.1,7.2,1.6,10.5,1.6,5.5,0,6.8-.6,6.8-1.3s-.2-.5-.6-.6c-.6-.2-2.1-.5-6.6-1.2-4.9-.8-7.2-1.2-8.8-2-1.6-.8-2.6-2-2.6-3.8s.7-2.4,1.7-3.3c1.9-1.5,5.2-2.1,8.7-2.1s8.4.4,12.6,1.4h.4c0,.1-1,3.9-1,3.9-4.7-1-7.4-1.3-11-1.4-2.5,0-4.3.2-5.2.5-.5.2-.7.4-.7.7s.2.5.7.7c.6.2,1.5.4,6.4,1.2,5.3.9,7,1.2,8.5,1.8,2,.8,3.2,2.2,3.2,3.9s-1.7,3.8-4.7,4.7c-1.8.6-4.3.9-7,.9-4.4,0-9-.5-11.9-1.5,0,0-.5-.1-.5-.1Z"/>
</svg>