<?xml version="1.0" encoding="UTF-8"?>
<svg id="Layer_1" xmlns="http://www.w3.org/2000/svg" xmlns:xlink="http://www.w3.org/1999/xlink" version="1.1" viewBox="0 0 133 19">
  <!-- Generator: Adobe Illustrator 29.7.1, SVG Export Plug-In . SVG Version: 2.1.1 Build 8)  -->
  <defs>
    <style>
      .st0 {
        fill: none;
      }

      .st1 {
        fill: #5bc2dc;
      }

      .st2 {
        clip-path: url(#clippath);
      }
    </style>
    <clipPath id="clippath">
      <rect class="st0" y="0" width="133" height="35.4"/>
    </clipPath>
  </defs>
  <g class="st2">
    <g>
      <path class="st1" d="M12.9,4.8c-1.3-1-3-1.5-4.6-1.5s-2.9.2-2.9,1.7,1.3,1.7,3.3,2.4c2.3.9,5,2,5,5.2,0,5.1-5.5,5.8-8.1,5.8s-2.8-.1-4.2-.5c-1.2-.3-1.5-.9-1.5-2.4v-1.9c1.6.9,3.3,1.4,5.1,1.4s3.2-.6,3.2-1.9-1.1-1.7-4.1-2.8C2.1,9.5-.1,8.5-.1,5.5,0,1.1,4.9,0,7.9,0s2.8.2,4.2.7c.8.4.9.9.9,1.9v2.2h-.1ZM28.6.7h5.5c-.2,1.8-.3,4.6-.3,7.4v2.4c0,2.5,0,4.9.4,7.4h-3.2c-1.2,0-1.8-.4-2-1.2-1.4,1-3.1,1.6-4.8,1.6-5.9,0-6.7-3.6-6.7-6.2v-4.8c0-2.2,0-4.4-.3-6.6h3.3c1.5,0,2.2.9,2.2,2.4v7c0,2.8.3,4.9,3.7,4.9s1.5-.1,2.2-.4v-6.2c0-2.2,0-5.9-.2-7.7M45,18h-5.5c.2-1.8.3-4.6.3-7.4v-2.4c0-2.5,0-4.9-.4-7.4h3.2c1.2,0,1.8.4,2,1.2,1.4-1,3.1-1.6,4.8-1.6,5.9,0,6.7,3.6,6.7,6.2v4.8c0,2.2,0,4.4.3,6.6h-3.3c-1.5,0-2.2-.9-2.2-2.4v-7c0-2.8-.3-4.9-3.7-4.9s-1.5,0-2.2.4v6.2c0,2.2,0,5.9.2,7.7"/>
      <path class="st1" d="M71.9.7c1,0,2.1,0,3.1-.2-.2.9-.5,1.7-.8,2.5-.5,1-1.1,1.3-3.4,1.3h-2v5.9c0,2.2,0,5.9.3,7.7h-5.6c.2-1.8.3-5.5.3-7.7v-5.9h-1.7c-1.2,0-2.4,0-3.5.6v-1.8c0-1.5.3-2.4,2.4-2.4,0,0,10.9,0,10.9,0ZM93.7,9.2c0,5.7-3.3,9.3-9.2,9.3s-9-3.2-9-9.1S78.7.2,84.6.2s9,3.2,9,9M80.5,9.2c0,4,1.4,5.7,4.1,5.7s4-1.8,4-5.7-1.3-5.8-4-5.8-4.1,1.8-4.1,5.8"/>
      <path class="st1" d="M112,18.9c-2.1,0-2.6-.8-3.9-2.7-.7-1.1-3-4.9-3.4-5.7-.2-.4-.3-.7,0-.9,1.7-1,2.1-2,2.1-3.2s-.5-2.6-2.5-2.6-1,0-1.5.2v6.3c0,2.2,0,5.9.3,7.7h-5.4c.2-1.7.3-4.6.3-7.4v-2.4c0-2.5,0-4.9-.4-7.4,2.6,0,6-.1,7.7-.1,2.9,0,6.7.6,6.7,4.9s-.8,3.3-2.2,4.2c-.3.2-.3.3,0,.7,1.8,2.8,3.9,5.5,6.1,8.1-1.3.3-2.3.2-3.6.3M126.1,12.9v.4c0,1.5,0,3.1.3,4.6h-5.6c.2-1.5.3-3.1.3-4.6v-.4c0-.9-.3-1.8-.8-2.6-1.3-2.5-4-7.3-6.4-9.5,1.2-.1,2.5-.2,3.7-.2,2.2,0,2.8.7,3.4,1.6,1.1,1.9,2,3.9,2.9,5.9.8-2,1.8-3.9,2.8-5.8.6-1.1,1.8-1.7,3.1-1.6,1.1,0,2.2,0,3.3.2-1.7,1.5-5,6.9-6.3,9.3-.5.9-.7,1.8-.7,2.8"/>
    </g>
  </g>
</svg>