<?xml version="1.0" encoding="UTF-8"?>
<svg id="Layer_2" data-name="Layer 2" xmlns="http://www.w3.org/2000/svg" viewBox="0 0 131.99 154.83">
  <defs>
    <style>
      .cls-1 {
        fill: #fff;
      }
    </style>
  </defs>
  <g id="Isolation_Mode" data-name="Isolation Mode">
    <g>
      <path class="cls-1" d="M94.01,76.66c-.17.32-.11.31-.17.66s-.1.35-.16.71-.02.36-.08.72-.11.35-.17.71-.05.36-.11.72,0,.37-.05.73-.05.36-.11.72-.05.36-.11.72-.14.34-.2.7-.07.36-.13.72-.03.36-.09.72-.06.36-.12.72-.01.37-.07.73-.23.33-.29.69-.05.36-.11.72-.09.35-.15.71.03.37-.03.73.03.37-.04.73-.09.35-.15.71-.04.36-.1.72-.13.35-.19.71-.1.35-.16.71-.09.35-.15.71.05.38-.02.74-.06.36-.13.72-.24.33-.3.69.19.4.13.76-.25.33-.31.69-.1.35-.16.71.06.38,0,.74-.02.37-.08.73-.04.36-.1.73-.11.35-.17.72-.04.37-.1.73-.09.36-.15.72c-.05.23-.11.47-.16.7s-.05.48-.11.71-.2.44-.27.66-.22.43-.29.65-.18.44-.26.66-.15.45-.24.67-.02.51-.12.72-.33.37-.44.58-.24.41-.36.61-.32.36-.44.56-.12.49-.25.68-.26.4-.4.59-.29.38-.44.56-.45.23-.61.4-.25.41-.42.57-.33.34-.51.49-.28.41-.46.56-.4.26-.59.4-.38.28-.58.41-.39.27-.6.39-.44.2-.65.3-.44.18-.66.28-.5.04-.72.12-.43.19-.65.27-.43.2-.66.27-.42.28-.65.34-.49-.03-.72.02-.47.06-.7.09-.47.06-.7.08-.47.03-.7.04-.47.02-.71.03-.47.07-.71.07c-.36,0-.36.14-.72.14s-.36-.15-.72-.15-.36-.08-.72-.08-.36-.03-.72-.03-.36.07-.72.07-.36,0-.72,0-.36-.07-.72-.07-.36.14-.72.14-.36.11-.72.11-.36-.14-.72-.14-.36.04-.72.04-.36-.09-.72-.09-.36.18-.72.18-.36-.25-.72-.25-.36.03-.72.03-.36.15-.72.15-.36.09-.72.09-.36-.1-.72-.1-.36-.07-.72-.07-.36-.05-.72-.05-.36.12-.72.12-.36.06-.72.06-.36-.08-.72-.08-.36-.09-.72-.09-.36.23-.72.23-.36-.25-.72-.25-.36.11-.72.11-.36,0-.72,0-.36-.04-.72-.04-.36.1-.72.1-.36-.11-.72-.11-.36.04-.72.04-.36.05-.72.05-.36.09-.72.09-.36-.09-.72-.09-.36-.06-.72-.06-.36-.13-.72-.13-.36.02-.72.02-.36.24-.72.24-.36-.21-.72-.21-.36.13-.72.13-.36.02-.73.02-.36-.16-.72-.16-.36.17-.72.17-.36,0-.72,0-.36-.12-.73-.12-.36.16-.73.16-.36-.13-.73-.13-.43.25-.67-.03,0-.3.05-.65-.02-.37.04-.72.2-.33.26-.68.05-.35.12-.71-.01-.37.05-.72.15-.34.21-.69.06-.35.13-.71-.09-.38-.02-.73.17-.33.23-.69-.05-.37.02-.73.2-.33.26-.68-.06-.37,0-.73.15-.34.21-.69.09-.35.16-.7.02-.36.09-.71.14-.34.21-.69.13-.34.2-.69.08-.35.15-.7.06-.35.13-.7.01-.36.08-.71,0-.37.06-.72-.02-.37.04-.72.25-.32.32-.67.08-.35.14-.7.03-.36.09-.71-.14-.39-.08-.74.06-.35.12-.71.3-.31.36-.66.04-.36.11-.71-.12-.38-.05-.73.14-.34.2-.69.06-.35.13-.7.19-.33.25-.68.06-.35.12-.7.06-.35.13-.7-.08-.38-.02-.73.15-.34.22-.69.14-.34.2-.69-.15-.39-.08-.74.14-.34.2-.69.2-.33.26-.68-.15-.39-.09-.74.12-.34.18-.69,0-.36.07-.71.06-.35.13-.7.15-.34.22-.69.06-.35.13-.7.18-.33.24-.68.06-.35.12-.7-.11-.38-.05-.73.2-.33.26-.68-.06-.37,0-.73.09-.35.15-.7.21-.33.27-.68-.09-.38-.03-.73.17-.33.23-.69.11-.35.18-.7,0-.36.07-.72-.1-.38-.03-.74.3-.31.36-.66-.01-.37.05-.72.04-.36.11-.71.05-.36.11-.71.09-.35.15-.7-.02-.37.05-.72.08-.35.14-.71.23-.32.29-.68-.1-.38-.03-.74.2-.33.26-.68.05-.36.11-.71.05-.36.12-.71-.09-.38-.03-.74.16-.34.23-.69.18-.33.25-.69-.11-.39-.04-.74.16-.34.23-.69.17-.33.23-.69-.12-.38-.06-.74.09-.35.16-.7,0-.37.06-.72.11-.34.18-.7.12-.35.18-.7.15-.34.21-.69-.06-.38,0-.73.13-.34.19-.7-.07-.38,0-.74.27-.32.34-.67.03-.36.09-.72-.13-.39-.06-.75.11-.35.17-.7.01-.36.08-.72.11-.35.17-.7.27-.32.34-.67-.08-.38-.01-.74.09-.35.15-.71.07-.35.03-.71c-.23-.09-.38-.12-.61-.21s-.46-.14-.69-.22-.38-.36-.61-.44-.53.04-.76-.04-.38-.39-.6-.47-.53.04-.76-.04-.4-.34-.62-.42-.47-.12-.7-.2-.48-.09-.71-.17-.44-.21-.67-.28-.47-.12-.7-.19-.46-.14-.69-.21-.49-.05-.72-.12-.42-.3-.65-.36-.5-.02-.73-.08-.46-.14-.7-.2-.48-.07-.72-.13-.43-.27-.67-.33-.49-.04-.73-.09-.49-.05-.72-.1-.47-.13-.7-.18-.49,0-.73-.04-.48-.08-.71-.12-.47-.1-.71-.14-.46-.2-.69-.24-.46-.2-.69-.24-.49-.02-.72-.05-.48-.09-.72-.12-.5.06-.73.04-.49.07-.73.04-.45-.31-.69-.33-.48-.01-.72-.03-.49,0-.72,0-.49.09-.72.08-.48-.14-.72-.14-.48.16-.71.16-.48-.17-.72-.16-.48-.05-.72-.04-.47.14-.71.15-.47.11-.71.12-.48-.03-.72,0-.47.1-.71.13-.48-.01-.72.01-.5-.1-.73-.06-.47.13-.7.17-.45.18-.69.22-.5-.06-.73-.01-.41.34-.64.39-.49,0-.72.05-.44.2-.66.27-.51-.04-.74.03-.4.32-.62.4-.47.11-.69.19-.44.19-.66.28-.44.19-.65.29-.5.06-.71.17-.32.42-.53.53-.39.26-.6.38-.52.06-.72.18-.4.26-.6.39-.28.42-.47.56-.51.1-.7.25-.27.42-.45.58-.42.24-.59.4-.33.34-.5.51-.23.43-.4.6-.42.25-.58.43-.24.42-.39.6c-.15.19-.44.27-.58.47s-.28.4-.42.6-.14.49-.28.69-.28.39-.4.6-.41.32-.53.53-.09.51-.2.72-.35.37-.45.59-.19.45-.29.67-.24.43-.33.65.04.53-.04.76-.34.4-.41.63-.15.46-.22.7-.2.45-.26.69-.1.48-.15.72,0,.5-.04.74.05.5.01.74-.27.45-.3.69.03.49,0,.73-.18.47-.2.72.22.5.21.74-.01.48-.02.73-.23.48-.23.73.13.48.14.72-.1.48-.09.72.05.48.07.72.07.47.09.72.04.48.06.72-.07.49-.04.73.13.47.17.71.08.47.12.71.03.48.07.72.14.46.18.7,0,.48.05.72.16.45.21.69.2.44.25.68.03.48.09.71.16.45.22.68-.01.5.05.73.28.42.34.65.06.48.12.71.13.46.2.69.14.46.21.68.08.48.16.7.22.43.3.66.13.46.21.69.24.42.32.65.23.42.31.65.01.51.1.73.34.38.43.6.13.46.23.68.01.52.11.74.3.39.39.61.25.41.35.63.02.52.12.73.27.4.38.62.22.43.32.64.29.39.4.61.05.51.16.73.26.4.37.62.26.4.37.62.36.35.47.56.12.48.24.69.12.48.24.69.31.38.42.59.29.39.41.59.23.42.35.63.18.45.3.66.3.38.42.59.26.4.39.61.35.35.48.55.15.47.28.67.32.36.45.56.26.4.39.6.25.41.38.61.21.44.34.64.37.33.51.52.16.47.3.66.37.33.51.52.31.37.45.56.25.41.39.6.14.49.28.69.31.37.45.56.42.28.57.47.28.39.43.58.24.42.38.61.26.41.41.6.19.46.33.65.43.27.58.46.36.33.51.51.26.41.41.59.16.49.32.67.44.26.6.44.33.35.48.53.18.48.34.66.33.35.49.53.43.26.59.45.15.51.31.69.46.23.62.41.33.34.49.52.29.39.45.57.32.36.48.53.25.43.41.6.45.24.61.41.19.48.36.65.43.26.59.43.26.41.43.59.29.39.46.56.38.3.55.48.47.21.64.38.29.39.46.56.29.39.46.56.41.27.59.43.25.43.43.6.47.21.64.37.33.35.5.52.25.44.43.6.44.23.62.4.37.31.55.48.23.46.41.62.42.25.6.41.41.26.59.42.26.44.44.6.39.28.58.44.38.3.56.46.48.19.66.34.33.36.52.52c.18.15.4.26.59.41s.33.36.51.51.26.45.44.6.51.13.7.28.38.29.57.44.36.32.55.47.29.41.47.56.44.21.63.36.37.31.56.45.29.4.48.55.45.2.64.34.37.31.56.45.49.15.68.29.23.5.42.64.48.16.67.3.46.18.66.31.38.29.57.43.4.27.59.4.3.41.5.54.49.14.68.27.25.49.45.62.5.11.7.24.31.4.51.53.42.24.62.37.46.17.66.3.44.2.64.33.4.26.6.39.4.26.6.39.34.35.55.48.47.14.68.27.41.25.61.37.38.29.59.41.42.22.63.34.37.32.57.44.37.32.57.44.47.13.68.25.38.3.59.42.36.33.57.45.47.15.68.26.38.3.59.41.48.13.69.24.44.19.65.3.44.18.66.29.35.37.56.48.49.1.7.21.35.36.57.47.53,0,.75.11.38.32.59.42.45.17.66.27.44.18.66.28.41.26.62.36.46.15.68.25.37.35.59.44.46.15.68.25.47.13.69.22.44.18.66.27.4.29.62.38.47.12.69.21.5.05.72.14.35.42.57.51.45.17.67.26.51,0,.73.09.42.25.64.33.5.02.73.1.38.35.61.43.44.19.67.27.51,0,.73.07.43.21.66.29.43.24.65.31.46.14.69.21.52-.08.75-.01.43.22.66.29.47.09.7.16.43.23.66.29.5-.02.73.03.44.2.67.26.46.15.69.21.5-.05.74,0,.44.22.67.27.47.08.7.13.47.08.7.12.44.22.68.27.5-.11.74-.07.45.22.68.26.45.19.69.22.49-.06.73-.03.46.14.7.17.47.14.7.17.48-.02.72,0,.47.05.71.07.48-.03.72-.02.48-.02.71,0,.48-.01.71,0,.47.22.7.23.48-.1.71-.09.47.07.7.07.48.07.71.07.47-.23.71-.24.48.02.71,0,.48.04.72.02.49.07.72.05.47-.06.71-.09.46-.17.69-.2.47-.08.7-.11.49.02.72-.02.47-.1.7-.15.43-.27.66-.33.51.09.74.04.4-.34.63-.4.48-.05.7-.12.43-.21.65-.29.47-.09.69-.17.46-.12.68-.21.41-.25.63-.34.47-.1.69-.21.37-.31.58-.42.47-.13.67-.25.42-.23.62-.35.37-.3.57-.43.4-.24.6-.38.37-.29.56-.43.36-.31.54-.46.35-.31.53-.47.4-.26.57-.43.31-.35.48-.52.31-.35.47-.52.27-.39.43-.57c.16-.18.47-.22.62-.41s.14-.49.28-.68.34-.34.47-.53.34-.34.46-.54.18-.44.3-.65.28-.38.39-.59.33-.36.43-.58.17-.45.26-.66.05-.49.14-.71.22-.42.3-.64.02-.49.09-.71.15-.44.21-.67.29-.41.35-.64-.03-.49.02-.72.16-.45.21-.68.19-.45.23-.68,0-.48.03-.71.09-.46.11-.7.05-.47.07-.71-.1-.48-.08-.72.11-.46.12-.7.04-.47.05-.71.04-.47.04-.71-.09-.48-.09-.72-.1-.47-.11-.71.23-.49.21-.73-.06-.48-.08-.71-.08-.47-.1-.71-.06-.47-.09-.71-.2-.45-.23-.69.09-.49.06-.73-.26-.44-.3-.67.01-.48-.03-.72-.04-.48-.09-.71-.09-.47-.14-.7-.27-.43-.32-.66-.12-.46-.18-.69-.08-.47-.14-.7-.17-.44-.24-.67.05-.51-.01-.74-.33-.4-.4-.63-.1-.46-.18-.69-.11-.46-.19-.69.01-.51-.06-.73-.24-.42-.32-.65-.08-.48-.17-.7-.36-.37-.44-.6-.13-.46-.22-.68-.21-.43-.3-.65-.21-.43-.31-.65-.04-.5-.13-.72-.29-.39-.39-.61-.21-.43-.31-.65,0-.52-.1-.74-.29-.39-.39-.61-.21-.43-.31-.65-.31-.38-.42-.59-.17-.44-.28-.66-.29-.38-.4-.6-.22-.42-.33-.64,0-.54-.11-.75-.24-.41-.36-.62-.4-.32-.51-.53-.13-.47-.24-.68-.34-.35-.46-.56-.04-.53-.16-.73-.36-.34-.48-.54-.35-.34-.48-.55-.15-.46-.28-.67-.18-.45-.31-.65-.37-.33-.5-.53-.18-.45-.3-.65-.27-.39-.4-.59-.14-.48-.27-.68-.5-.24-.63-.44-.07-.53-.2-.73-.28-.39-.42-.58-.38-.32-.51-.52-.35-.34-.49-.53-.16-.47-.3-.66-.25-.41-.39-.6-.22-.43-.37-.62-.3-.38-.44-.57-.29-.38-.44-.57-.28-.38-.43-.57-.45-.25-.6-.44-.15-.49-.3-.67-.24-.42-.38-.61-.43-.27-.58-.46-.32-.36-.47-.54-.3-.37-.45-.56-.21-.44-.37-.63-.31-.37-.46-.55-.33-.35-.49-.53-.32-.35-.48-.54-.35-.33-.51-.51-.3-.37-.46-.55-.36-.32-.52-.5-.17-.49-.33-.67-.44-.25-.6-.42-.22-.45-.38-.63-.48-.21-.64-.39-.31-.36-.48-.54-.17-.5-.33-.67-.31-.37-.48-.54-.46-.22-.63-.4-.23-.44-.4-.62-.32-.36-.49-.53-.46-.22-.63-.4-.37-.3-.54-.48-.19-.49-.36-.66-.45-.23-.62-.4-.19-.31-.36-.48Z"/>
      <path class="cls-1" d="M40.5.1c-.25,0-.49.07-.73.08s-.48.08-.72.11-.49.04-.72.09-.5.05-.73.13-.46.18-.68.28-.43.24-.64.36-.39.29-.6.42-.34.35-.53.5-.51.15-.68.32-.21.47-.38.65-.44.26-.59.46-.36.34-.5.55-.24.43-.36.65-.23.44-.33.66-.06.5-.14.73-.11.47-.18.71-.12.46-.17.7c-.07.35-.12.34-.18.7s-.2.33-.27.68.04.37-.03.72,0,.37-.06.72-.02.36-.08.71-.25.32-.32.67.05.38-.01.73-.18.33-.25.69.04.37-.02.73-.21.33-.28.68-.04.35-.11.71.03.37-.04.72-.07.35-.14.7.04.37-.02.73-.1.35-.17.7-.18.33-.24.69-.06.35-.12.71-.05.36-.11.71.09.38.02.74-.05.36-.12.71-.23.32-.29.68-.15.34-.22.69.07.38,0,.73-.07.35-.13.71.01.37-.05.72-.25.32-.32.68-.09.35-.16.71.09.39.03.74-.38.41-.15.7.34.14.7.14.36-.03.71-.03.36-.04.71-.04.36-.02.71-.02.36-.09.71-.09.36-.02.72-.02.36.15.72.15.36.07.72.07.36-.18.72-.18.36.08.72.08.36.08.71.08.36-.22.71-.22.36.23.71.23.36-.18.71-.18.36-.07.72-.07.36.12.72.12.36.16.72.16.36-.27.72-.27.36.06.72.06.36.03.72.03.36.09.72.09.36-.11.72-.11.36-.07.72-.07.36.26.72.26.36,0,.72,0,.36-.11.72-.11.36.11.72.11.36-.24.72-.24.36.16.71.16.36-.04.71-.04.36-.06.71-.06.36.16.72.16.36,0,.72,0,.36-.06.72-.06.36.04.72.04.36-.21.72-.21.36.16.72.16.36-.05.72-.05.36-.06.72-.06.36.04.72.04.36.18.72.18.36-.09.72-.09.36-.12.72-.12.36.19.72.19.36-.07.72-.07.36-.05.73-.05.53-.31.76-.03.04.41-.03.76-.17.33-.23.69-.06.35-.13.71-.19.33-.25.68.08.38.02.73-.21.33-.27.68.12.39.06.74-.09.35-.16.7-.14.34-.2.69-.13.34-.2.69,0,.36-.06.72-.17.33-.23.68.09.38.03.73-.06.35-.12.7-.1.35-.16.7.05.37-.01.72-.08.35-.15.7-.14.34-.2.69-.01.36-.08.71-.24.32-.31.67.05.37-.02.73-.18.33-.24.68.01.37-.05.72-.04.36-.11.71-.11.35-.17.7-.05.36-.11.71.07.38,0,.73-.17.33-.24.69-.1.35-.16.7-.1.35-.17.7.03.37-.03.72-.06.35-.12.71.02.37-.04.72-.21.33-.27.68-.1.35-.16.7.09.38.02.73-.29.31-.35.66-.04.36-.1.71-.03.36-.1.71-.02.36-.09.71.06.38,0,.73-.2.33-.27.68.05.37-.02.73-.23.32-.3.68-.06.35-.13.71-.01.36-.08.72-.06.35-.13.71.1.38.03.73-.25.32-.32.67-.03.36-.1.71-.06.35-.12.7-.14.34-.21.69-.08.35-.14.7.03.37-.04.72.03.37-.03.72-.15.34-.22.69.04.37-.02.73,0,.36-.07.72-.1.35-.17.7-.05.35-.11.71-.15.34-.22.69-.03.36-.1.71,0,.36-.07.71-.19.33-.25.68-.02.36-.09.71-.22.32-.28.68.16.39.1.74-.27.31-.34.67.06.37,0,.73-.04.36-.1.71-.1.35-.16.7-.07.35-.14.71-.18.33-.25.69.11.39.05.74-.14.34-.2.69-.02.36-.08.72-.04.36-.1.71-.07.35-.13.7-.14.34-.2.69-.09.35-.16.7-.11.34-.18.7.08.38.01.73-.02.36-.08.72-.1.35-.16.7-.16.34-.22.69-.02.36-.08.72-.14.34-.2.69.06.38,0,.73-.19.33-.25.69-.03.36-.09.72.06.38,0,.73-.23.32-.29.68.04.37-.02.73-.09.35-.15.7,0,.36-.06.72-.22.32-.29.68.14.39.08.74-.11.35-.17.7-.24.32-.3.68-.04.36-.11.71.01.37-.05.72-.1.35-.17.7.08.38.02.74-.27.32-.34.67-.09.35-.15.71.05.38-.01.73.05.38,0,.73-.06.36-.12.71-.3.31-.36.67,0,.37-.06.73-.14.34-.21.7.06.38,0,.74-.35.41-.12.69.33-.06.69-.06.36.17.72.17.36-.19.72-.19.36.23.72.23.36-.13.72-.13.36-.03.72-.03.36.09.72.09.36.05.73.05.36-.02.72-.02.36-.18.72-.18.36.21.72.21.36,0,.72,0,.36-.03.72-.03.36-.05.72-.05.36-.05.73-.05.36-.1.72-.1.36.06.72.06.36.12.72.12.36-.08.72-.08.36,0,.72,0,.36.08.72.08.36.02.72.02.36.07.73.07.36-.17.72-.17.36,0,.72,0,.36-.02.72-.02.36,0,.73,0,.36.03.73.03.36.06.73.06.36.02.73.02.36-.07.73-.07.36,0,.73,0,.36-.06.73-.06.36.02.73.02.37.06.73.06.37.11.73.11.37-.11.73-.11c.24,0,.48.1.72.09s.46-.21.7-.24.46-.08.7-.13.45-.12.68-.19.53.07.75-.01.45-.19.66-.3.31-.43.51-.56.5-.11.69-.26.33-.35.51-.52.29-.37.46-.55.36-.31.51-.5.18-.44.31-.65.3-.37.41-.58.21-.42.31-.64.33-.38.42-.61-.06-.52.01-.75.3-.41.35-.65.09-.47.13-.71c.06-.35.02-.36.08-.72s-.06-.38,0-.73.18-.33.24-.69.1-.35.16-.7-.03-.37.03-.73,0-.36.07-.72.13-.34.19-.7.03-.36.09-.72.04-.36.1-.71.17-.34.23-.69,0-.37.06-.72.1-.35.16-.71-.01-.37.05-.73.03-.36.09-.72.15-.34.21-.7,0-.37.06-.72.23-.33.29-.68.03-.36.09-.72,0-.37.05-.72.07-.35.13-.71.13-.34.19-.7-.02-.37.04-.73.06-.36.12-.71.11-.35.17-.7.09-.35.15-.71-.1-.38-.04-.74.15-.34.21-.7,0-.37.05-.72.18-.34.24-.69.02-.36.08-.72-.09-.38-.03-.74.13-.34.2-.7.22-.33.28-.69-.09-.38-.03-.74-.02-.37.04-.73.22-.33.28-.68.07-.35.14-.71.06-.35.12-.71.08-.35.14-.71.13-.34.19-.7-.2-.4-.14-.75.27-.32.33-.68-.01-.37.05-.73-.02-.37.04-.73.06-.36.12-.71.18-.34.24-.69.02-.36.08-.72-.08-.38-.02-.74.21-.33.27-.69.05-.36.11-.71-.03-.37.04-.72.26-.32.32-.68-.16-.39-.1-.75.25-.32.31-.68-.05-.37.01-.73.02-.36.08-.72,0-.37.06-.72.3-.31.36-.67-.05-.38,0-.73.09-.35.15-.71.08-.35.14-.71-.13-.39-.07-.75.23-.33.29-.69.03-.36.09-.72.13-.34.19-.7.01-.36.07-.72.08-.35.14-.71-.01-.37.05-.72.19-.34.25-.69-.09-.38-.03-.74.18-.34.24-.7-.15-.39-.08-.75.14-.34.2-.7.09-.35.15-.71-.02-.37.04-.73.23-.33.29-.69.08-.35.14-.71-.12-.39-.06-.75.27-.32.33-.68-.01-.37.05-.73,0-.37.07-.72.19-.33.26-.69-.01-.37.05-.72.05-.36.11-.71-.08-.38-.01-.74.14-.35.2-.7.15-.34.21-.7,0-.37.07-.72.18-.34.24-.69-.15-.39-.09-.75.22-.33.28-.69-.15-.4-.09-.75.25-.33.31-.69,0-.37.07-.73-.05-.38.01-.74.22-.33.29-.69.13-.35.19-.7-.2-.41-.14-.77.2-.34.26-.7.1-.36.16-.72-.22-.53.05-.77.39-.05.75-.05.36.23.71.23.36-.17.71-.17.36.02.71.02.36-.03.71-.03.36,0,.71,0,.36.17.71.17.36-.18.71-.18.36,0,.71,0,.36.12.71.12.36-.05.71-.05.36.02.71.02.36-.05.71-.05.36-.11.71-.11.36.26.71.26.35-.21.71-.21.35.07.71.07.35.12.71.12.36.03.71.03.36-.03.72-.03.36.01.71.01.36-.17.71-.17.36.15.71.15.36,0,.72,0,.36-.1.71-.1.36-.08.71-.08.36.05.72.05.36.16.72.16.36-.11.72-.11.36-.16.71-.16.36.11.72.11.36.05.72.05.36.03.72.03.36-.18.72-.18c.25,0,.49.1.73.08s.47-.16.71-.2.51.08.74.02.43-.25.66-.33.52,0,.74-.1.45-.19.67-.31.38-.32.58-.45.39-.29.58-.44.41-.26.59-.43.27-.42.43-.6.43-.27.58-.46.22-.44.36-.64.18-.45.3-.67.28-.39.38-.62.33-.39.41-.62.12-.48.19-.71.11-.48.16-.72c.07-.35-.04-.37.03-.73s0-.36.07-.72.02-.36.08-.71.21-.33.27-.68.18-.33.24-.69-.12-.39-.05-.74.01-.36.08-.72.27-.32.33-.67.02-.36.08-.72.1-.35.17-.7.11-.34.18-.69-.13-.39-.06-.74.06-.35.12-.71.12-.34.19-.7.02-.36.08-.72.05-.36.12-.71.23-.32.29-.68.01-.36.08-.72.05-.36.12-.71-.02-.37.04-.73,0-.37.06-.72.34-.31.4-.66.05-.36.11-.71-.1-.38-.03-.74.16-.34.23-.69.14-.34.2-.7.07-.36.14-.71-.02-.37.05-.73.31-.44.08-.73-.36-.05-.72-.05-.36-.06-.72-.06-.36.08-.72.08-.36.08-.72.08-.36-.06-.72-.06-.36-.08-.72-.08-.36.07-.72.07-.36,0-.72,0-.36-.12-.72-.12-.36.2-.72.2-.36-.08-.72-.08-.36-.06-.72-.06-.36.2-.72.2-.36-.13-.72-.13-.36.07-.72.07-.36.06-.72.06-.36-.07-.72-.07-.36-.17-.72-.17-.36-.01-.72-.01-.36.15-.72.15-.36-.1-.72-.1-.36.16-.72.16-.36,0-.72,0-.36.04-.72.04-.36-.15-.72-.15-.36.08-.72.08-.36-.05-.72-.05-.36.04-.72.04-.36.05-.72.05-.36-.04-.72-.04-.36-.1-.72-.1-.36.01-.72.01-.36.17-.72.17-.36-.18-.72-.18-.36.04-.72.04-.36.04-.72.04-.36-.03-.72-.03-.36.07-.72.07-.36,0-.72,0-.36-.11-.72-.11-.36.1-.72.1-.36-.09-.72-.09-.36-.05-.72-.05-.36.11-.72.11-.36,0-.72,0-.36.09-.72.09-.36-.22-.72-.22-.36.02-.72.02-.36.15-.72.15-.36-.19-.72-.19-.36.1-.72.1-.36-.06-.72-.06-.36-.03-.72-.03-.36.05-.72.05-.36.03-.72.03-.36-.1-.72-.1-.36.25-.72.25-.36-.05-.72-.05-.36-.08-.72-.08-.36-.08-.72-.08-.36-.04-.72-.04-.36.2-.72.2-.36-.07-.71-.07-.36-.09-.72-.09-.36.14-.72.14-.36,0-.72,0-.36,0-.72,0-.36-.11-.72-.11-.36.17-.72.17-.36-.26-.72-.26-.36.26-.72.26-.36-.24-.72-.24-.36.05-.72.05-.36.12-.72.12-.36.08-.72.08-.36-.15-.72-.15-.36-.06-.72-.06-.36,0-.72,0-.36.15-.72.15-.36-.09-.72-.09-.36-.08-.72-.08-.36.1-.72.1-.36,0-.72,0-.36-.13-.72-.13-.36,0-.72,0-.36.12-.72.12-.36.08-.72.08S69.04,0,68.68,0s-.36.11-.72.11-.36.05-.72.05-.36.1-.72.1-.36-.12-.72-.12-.36-.07-.72-.07-.36.18-.72.18-.36-.01-.72-.01-.36-.03-.72-.03-.36.03-.72.03-.36-.2-.72-.2-.36.06-.72.06-.36-.06-.72-.06-.36.22-.72.22-.36,0-.72,0-.36-.02-.72-.02-.36-.09-.72-.09-.36.02-.72.02-.36-.13-.72-.13-.36.15-.72.15-.36,0-.72,0-.36,0-.72,0-.36,0-.72,0-.36-.03-.72-.03-.36-.14-.72-.14-.36.24-.72.24-.36-.24-.72-.24-.36.21-.72.21-.36-.15-.72-.15S48.12,0,47.76,0s-.36.07-.72.07-.36-.02-.72-.02-.36.17-.73.17-.36-.02-.73-.02-.36.03-.72.03-.36-.11-.72-.11-.36.09-.73.09-.36-.08-.73-.08-.37.06-.73.05-.36-.07-.73-.07Z"/>
    </g>
  </g>
</svg>