<?xml version="1.0" encoding="UTF-8"?>
<svg id="Layer_2" data-name="Layer 2" xmlns="http://www.w3.org/2000/svg" viewBox="0 0 400.27 226.77">
  <defs>
    <style>
      .cls-1 {
        fill: #231f20;
      }
    </style>
  </defs>
  <g id="Layer_1-2" data-name="Layer 1">
    <g>
      <path class="cls-1" d="M241.88,123.63c15.36,0,27.7-11.53,27.7-26.74s-12.33-26.74-27.7-26.74-27.7,11.53-27.7,26.74,12.33,26.74,27.7,26.74ZM241.88,84.07c7.1,0,12.95,5.8,12.95,12.82s-5.86,12.82-12.95,12.82-12.96-5.8-12.96-12.82,5.86-12.82,12.96-12.82Z"/>
      <path class="cls-1" d="M310.62,105.28c4.97-3.41,8.89-8.46,8.89-15.35,0-10.71-8.62-18.62-19.5-18.62h-23.5v51.16h14.06v-13.92h6.62l6.41,13.92h15.78l-8.75-17.19ZM300.01,95.94h-9.44v-12.07h9.44c3.17,0,5.24,3.55,5.24,6.07s-2.07,6-5.24,6Z"/>
      <rect class="cls-1" x="328.04" y="71.32" width="14.05" height="51.16"/>
      <path class="cls-1" d="M371.31,71.31l-23.7,51.16h15.07l2.47-5.8h17.58l2.47,5.8h15.07l-23.7-51.16h-5.27ZM369.43,104.53l4.36-9.96h.29l4.36,9.96h-9.01Z"/>
      <path class="cls-1" d="M182.96,122.47h14.06v-38.61h14.12v-12.55h-34.02L210.17,0H0l33.26,71.78h15.51l12.72,27.46,12.72-27.46h15.54l-23.28,50.24h-9.93l48.54,104.75,49.66-107.17c-3.85,2.23-8.32,3.51-13.09,3.51-15.01,0-26.93-11.32-26.93-26.26s11.92-26.26,26.93-26.26c9.58,0,17.95,5.16,22.51,12.8l-11.72,7.03c-2.21-3.61-6.23-6.16-10.79-6.16-6.97,0-12.59,5.7-12.59,12.6s5.63,12.6,12.59,12.6c4.55,0,8.57-2.48,10.79-6.16l7.72,4.63,11.15-24.05h11.66v38.61ZM108.33,122.02h-14.35v-50.24h14.35v50.24Z"/>
    </g>
  </g>
</svg>